<svg width="1105" height="1264" viewBox="0 0 1105 1264" fill="none" xmlns="http://www.w3.org/2000/svg">
<g opacity="0.3">
<path d="M918.901 715C841.412 846.313 763.129 845.919 698.754 879.043C647.493 905.463 601 968.557 601 1043.09C601 1146.4 685.244 1230 789.356 1230C847.373 1230 899.032 1204.37 933.604 1163.75L958.241 1131.81L1009.1 980.781L1025 765.475L918.901 715Z" fill="url(#paint0_linear)"/>
<path opacity="0.33" d="M922.962 929C860.6 1041.13 754.943 1106.44 633 1146.97C666.763 1197.33 725.947 1182.77 789.5 1168.21C853.053 1153.66 842.726 1150.11 877.283 1109.59L924.154 1070.64L946 995.885" fill="url(#paint1_radial)"/>
<path d="M0 123.105C0 123.105 68.3505 264.459 198.693 367.62C292.477 442.037 447.06 534.567 706.951 516.455L741.523 513.305C741.523 513.305 723.244 529.054 704.566 544.804C685.095 560.948 658.47 578.272 658.47 578.272C658.47 578.272 852.792 607.409 927.898 747.976C975.981 838.143 1051.09 979.497 908.028 1187C908.028 1187 1002.61 1118.09 1072.94 907.048C1072.94 907.048 1163.95 671.196 1034.4 396.757C1034.4 396.757 970.021 251.071 849.215 159.329C849.215 159.329 855.573 189.254 855.573 215.634C855.573 260.521 853.189 273.909 853.189 273.909C853.189 273.909 745.497 37.2686 507.065 8.52528C323.075 -13.9181 195.117 2.61912 0 123.105Z" fill="#46F1FF"/>
<path opacity="0.59" d="M1089.17 853C1108.25 767.524 1127.33 592.238 1035.51 397.651C1035.51 397.651 971.112 251.908 850.269 160.129C850.269 160.129 856.63 190.065 856.63 216.457C856.63 261.361 854.245 274.754 854.245 274.754C854.245 274.754 745.725 37.2319 507.22 8.47718C323.174 -13.9752 195.176 2.96256 0 123.102C23.453 118.375 46.9059 114.83 70.7564 112.073C560.486 54.1696 1005.7 382.683 1089.17 853Z" fill="url(#paint2_linear)"/>
<path opacity="0.56" d="M1076 506C1065.67 470.914 1052.55 435.039 1035.06 397.982C1035.06 397.982 970.666 252.117 849.829 160.262C849.829 160.262 856.189 190.223 856.189 216.637C856.189 261.579 853.804 274.982 853.804 274.982C853.804 274.982 745.687 37.2629 507.195 8.48422C323.158 -13.9868 195.167 2.96503 0 123.205C23.4518 118.474 46.9036 114.926 70.7529 112.166C391.128 74.3203 692.424 202.05 886.001 426.76" fill="url(#paint3_linear)"/>
<path d="M199.12 367.861C292.917 442.257 447.523 534.759 707.453 516.652L742.03 513.503C742.03 513.503 723.748 529.248 705.068 544.994C685.593 561.132 658.964 578.452 658.964 578.452C658.964 578.452 853.315 607.58 928.432 748.105C976.523 838.246 1051.64 979.558 908.56 1187C908.56 1187 1003.15 1118.12 1073.5 907.131C1073.5 907.131 1081.05 887.056 1089 852.023C1005.54 382.032 560.398 53.7464 70.7453 111.61C46.8985 114.365 23.0518 118.301 0 122.631C1.98723 126.961 70.3478 265.912 199.12 367.861Z" fill="url(#paint4_linear)"/>
<path d="M646.934 1141L490.026 1196.97C478.506 1200.94 470.164 1210.47 466.987 1221.98L458.247 1254.14C456.658 1260.49 463.014 1266.04 468.973 1263.27L695 1164.82L646.934 1141Z" fill="url(#paint5_linear)"/>
</g>
<defs>
<linearGradient id="paint0_linear" x1="690.967" y1="1161.66" x2="1005.62" y2="778.981" gradientUnits="userSpaceOnUse">
<stop offset="0.0251093" stop-color="#46F1FF"/>
<stop offset="0.3884" stop-color="#00C9F8"/>
<stop offset="0.5056" stop-color="#03BFF1"/>
<stop offset="0.7056" stop-color="#0CA4DD"/>
<stop offset="0.9627" stop-color="#1B78BD"/>
<stop offset="1" stop-color="#1D71B8"/>
</linearGradient>
<radialGradient id="paint1_radial" cx="0" cy="0" r="1" gradientUnits="userSpaceOnUse" gradientTransform="translate(680.346 1063.53) scale(153.536 152.08)">
<stop offset="0.4072" stop-color="#46F1FF"/>
<stop offset="1" stop-color="#46F1FF" stop-opacity="0"/>
</radialGradient>
<linearGradient id="paint2_linear" x1="228.778" y1="372.274" x2="982.339" y2="450.82" gradientUnits="userSpaceOnUse">
<stop stop-color="#00C9F8" stop-opacity="0.5"/>
<stop offset="0.5816" stop-color="#00C9F8" stop-opacity="0.6"/>
<stop offset="0.7449" stop-color="#00C3F8" stop-opacity="0.6781"/>
<stop offset="0.9698" stop-color="#00B1F8" stop-opacity="0.7856"/>
<stop offset="1" stop-color="#00AEF8" stop-opacity="0.8"/>
</linearGradient>
<linearGradient id="paint3_linear" x1="495.654" y1="-51.4578" x2="527.264" y2="226.69" gradientUnits="userSpaceOnUse">
<stop stop-color="#1D71B8" stop-opacity="0.6"/>
<stop offset="1" stop-color="#46F1FF" stop-opacity="0"/>
</linearGradient>
<linearGradient id="paint4_linear" x1="891.896" y1="810.416" x2="186.096" y2="-22.6089" gradientUnits="userSpaceOnUse">
<stop offset="0.00466153" stop-color="#35C0FF" stop-opacity="0.7"/>
<stop offset="0.468" stop-color="#46F1FF"/>
<stop offset="1" stop-color="#86FFF1"/>
</linearGradient>
<linearGradient id="paint5_linear" x1="462.688" y1="1243.79" x2="659.66" y2="1147.43" gradientUnits="userSpaceOnUse">
<stop stop-color="#00CAF8"/>
<stop offset="1" stop-color="#41EFFE"/>
</linearGradient>
</defs>
</svg>
