<svg width="106" height="90" viewBox="0 0 106 90" fill="none" xmlns="http://www.w3.org/2000/svg">
<path fill-rule="evenodd" clip-rule="evenodd" d="M18.5833 89.0001L52.5833 70.5184V54.6001L18.5833 89.0001Z" fill="#364069"/>
<path d="M18.5833 89.0001L52.5833 70.5184V54.6001L18.5833 89.0001" stroke="white" stroke-width="2"/>
<path fill-rule="evenodd" clip-rule="evenodd" d="M52.5833 53.1667V3H3L52.5833 53.1667Z" fill="#364069"/>
<path d="M52.5833 53.1667V3H3L52.5833 53.1667" stroke="white" stroke-width="2"/>
<path fill-rule="evenodd" clip-rule="evenodd" d="M95.0832 46.9465L52.5833 3L52.5837 70.3667L95.0832 46.9465Z" fill="#364069"/>
<path d="M95.0832 46.9465L52.5833 3L52.5837 70.3667L95.0832 46.9465" stroke="white" stroke-width="2"/>
<path fill-rule="evenodd" clip-rule="evenodd" d="M105 21.4177L95.3971 11.6001V11.6049V11.6001L78.0833 29.3044L95.3975 47.4334L95.3872 21.4177H105Z" fill="#364069"/>
<path d="M105 21.4177L95.3971 11.6001V11.6049V11.6001L78.0833 29.3044L95.3975 47.4334L95.3872 21.4177H105" stroke="white" stroke-width="2"/>
</svg>
