<svg width="47" height="47" viewBox="0 0 47 47" fill="none" xmlns="http://www.w3.org/2000/svg">
<path d="M45.4235 32.8316L37.0547 28.7916L24.1789 35.0073C23.7477 35.2154 23.2453 35.2154 22.8141 35.0073L9.93819 28.7915L1.56944 32.8315C0.386359 33.4026 0.386359 35.0875 1.56944 35.6586L22.814 45.9145C23.2452 46.1226 23.7477 46.1226 24.1788 45.9145L45.4234 35.6586C46.6065 35.0876 46.6065 33.4027 45.4235 32.8316Z" fill="#16C7F0" fill-opacity="0.82"/>
<path d="M45.4235 22.016L37.0547 17.9759L24.1789 24.1916C23.7477 24.3997 23.2453 24.3997 22.8141 24.1916L9.93819 17.9759L1.56944 22.016C0.386359 22.587 0.386359 24.272 1.56944 24.8431L22.814 35.0988C23.2452 35.3069 23.7477 35.3069 24.1788 35.0988L45.4234 24.8431C46.6065 24.2721 46.6065 22.587 45.4235 22.016Z" fill="#16C7F0" fill-opacity="0.33"/>
<path d="M22.8142 0.944416L1.56961 11.2001C0.386626 11.7713 0.386626 13.4562 1.56961 14.0273L22.8142 24.2831C23.2453 24.4912 23.7478 24.4912 24.1789 24.2831L45.4235 14.0273C46.6065 13.4561 46.6065 11.7712 45.4235 11.2001L24.179 0.944416C23.7478 0.73622 23.2453 0.73622 22.8142 0.944416Z" fill="white" fill-opacity="0.29"/>
<path d="M45.7252 21.4686L38.6364 18.0464L45.7252 14.6243C47.4252 13.8037 47.4243 11.3814 45.7252 10.5614L35.2066 5.48339C34.8653 5.31852 34.4552 5.46182 34.2904 5.80293C34.1257 6.14414 34.2688 6.55438 34.6101 6.71916L45.1287 11.7971C45.7958 12.1192 45.7965 13.0661 45.1287 13.3886C44.3078 13.7849 24.7378 23.2321 23.8841 23.6444C23.64 23.7621 23.36 23.7621 23.1159 23.6444C22.4479 23.3219 2.32252 13.6065 1.87134 13.3886C1.20416 13.0665 1.20342 12.1196 1.87134 11.7971L23.1158 1.54136C23.3599 1.4234 23.64 1.42349 23.8841 1.54126L31.7231 5.32559C32.0644 5.49046 32.4746 5.34707 32.6394 5.00604C32.8041 4.66484 32.661 4.2546 32.3198 4.08982L24.4806 0.305402C23.8574 0.00467528 23.1426 0.00458349 22.5193 0.305494L1.27475 10.5613C-0.425329 11.3819 -0.424411 13.8041 1.27475 14.6242L8.36349 18.0463L1.27475 21.4685C-0.425513 22.2891 -0.42432 24.7113 1.27475 25.5315L8.36358 28.9536L1.27475 32.3756C-0.425421 33.1965 -0.424136 35.6186 1.27475 36.4387L22.5194 46.6946C23.1422 46.9951 23.8574 46.9954 24.4807 46.6945L33.0884 42.5391C33.4296 42.3743 33.5727 41.9642 33.408 41.6229C33.2433 41.2817 32.833 41.1383 32.4917 41.3034L23.8841 45.4586C23.64 45.5766 23.3598 45.5765 23.1159 45.4587L1.87115 35.203C1.20397 34.8809 1.20324 33.934 1.87115 33.6115L9.94166 29.7157L22.5192 35.7874C23.1425 36.0883 23.8574 36.0884 24.4806 35.7874L37.0582 29.7157L45.1286 33.6115C45.7958 33.9335 45.7966 34.8805 45.1286 35.203L35.3788 39.9096C35.0376 40.0744 34.8944 40.4845 35.0591 40.8258C35.2239 41.167 35.634 41.3104 35.9753 41.1454L45.7252 36.4388C47.4254 35.618 47.4242 33.1959 45.7252 32.3757L38.6364 28.9537L45.7252 25.5316C47.425 24.711 47.4247 22.2888 45.7252 21.4686ZM45.1286 24.2958L23.884 34.5516C23.6399 34.6694 23.3599 34.6694 23.1159 34.5516L1.87125 24.2958C1.20407 23.9737 1.20324 23.0268 1.87125 22.7043L9.94166 18.8082L22.5193 24.88C23.1426 25.181 23.8575 25.181 24.4807 24.88L37.0584 18.8082L45.1288 22.7043C45.7959 23.0264 45.7967 23.9733 45.1286 24.2958Z" fill="#16C7F0"/>
</svg>
