<svg width="45" height="45" viewBox="0 0 45 45" fill="none" xmlns="http://www.w3.org/2000/svg">
<rect x="0.75" y="0.75" width="9.5" height="9.5" rx="1.25" fill="#40D1F3" stroke="#16C7F0" stroke-width="1.5"/>
<rect x="34.75" y="0.75" width="9.5" height="9.5" rx="1.25" fill="white" stroke="#16C7F0" stroke-width="1.5"/>
<rect x="0.75" y="34.75" width="9.5" height="9.5" rx="1.25" fill="#B2EDFA" stroke="#16C7F0" stroke-width="1.5"/>
<rect x="34.75" y="34.75" width="9.5" height="9.5" rx="1.25" fill="#8BE9FF" stroke="#16C7F0" stroke-width="1.5"/>
<path d="M19.02 25.02H14.46L13.54 28H10.08L14.72 14.8H18.84L23.46 28H19.92L19.02 25.02ZM18.3 22.68L17.34 19.52L16.76 17.44H16.72L16.18 19.5L15.18 22.68H18.3ZM34.4152 26.06C34.6685 26.06 34.8752 26.0333 35.0352 25.98L34.7752 27.88C34.3885 28.0933 33.9352 28.2 33.4152 28.2C31.9752 28.2 31.1152 27.6867 30.8352 26.66C30.2352 27.6867 29.0485 28.2 27.2752 28.2C26.2752 28.2 25.5085 27.9867 24.9752 27.56C24.4418 27.1333 24.1752 26.5133 24.1752 25.7C24.1752 24.8467 24.4752 24.16 25.0752 23.64C25.6885 23.1067 26.6885 22.7 28.0752 22.42L30.3352 21.98V21.62C30.3352 21.1667 30.2085 20.8067 29.9552 20.54C29.7018 20.2733 29.3552 20.14 28.9152 20.14C28.4085 20.14 27.9952 20.26 27.6752 20.5C27.3552 20.74 27.1485 21.1333 27.0552 21.68L24.2952 20.88C24.4685 19.9067 24.9485 19.1533 25.7352 18.62C26.5218 18.0733 27.5818 17.8 28.9152 17.8C30.4752 17.8 31.6618 18.12 32.4752 18.76C33.2885 19.4 33.6952 20.36 33.6952 21.64V25.28C33.6952 25.8 33.9352 26.06 34.4152 26.06ZM28.5152 26C28.9818 26 29.4018 25.8733 29.7752 25.62C30.1485 25.3533 30.3352 25.0067 30.3352 24.58V23.72L28.7152 24.1C28.2885 24.2067 27.9818 24.34 27.7952 24.5C27.6218 24.6467 27.5352 24.86 27.5352 25.14C27.5352 25.42 27.6218 25.6333 27.7952 25.78C27.9685 25.9267 28.2085 26 28.5152 26Z" fill="#16C7F0"/>
<line x1="5.75" y1="11" x2="5.75" y2="35" stroke="#16C7F0" stroke-width="1.5"/>
<line x1="39.75" y1="11" x2="39.75" y2="35" stroke="#16C7F0" stroke-width="1.5"/>
<line x1="17.25" y1="5.75" x2="10.75" y2="5.75" stroke="#16C7F0" stroke-width="1.5" stroke-linecap="round" stroke-linejoin="round"/>
<line x1="22.25" y1="5.75" x2="20.75" y2="5.75" stroke="#16C7F0" stroke-width="1.5" stroke-linecap="round" stroke-linejoin="round"/>
<line x1="34.25" y1="5.75" x2="25.75" y2="5.75" stroke="#16C7F0" stroke-width="1.5" stroke-linecap="round" stroke-linejoin="round"/>
<line x1="35" y1="39.75" x2="11" y2="39.75" stroke="#16C7F0" stroke-width="1.5"/>
</svg>
