<svg width="51" height="51" viewBox="0 0 51 51" fill="none" xmlns="http://www.w3.org/2000/svg">
<path d="M46.0373 32.1456C45.288 30.8477 29.4618 3.43613 28.952 2.55299C28.6414 2.0151 27.9539 1.83093 27.416 2.14131L16.1764 8.63056C15.6296 8.94642 15.4421 9.64568 15.7579 10.1925L22.0015 21.0068L46.6378 35.2305C46.6473 35.2362 46.6565 35.2423 46.6661 35.248C46.8095 35.3318 46.951 35.4185 47.0883 35.5112C48.0649 36.1711 48.8798 37.0463 49.4745 38.1037C49.3416 37.8668 50.054 39.1026 46.0373 32.1456Z" fill="white"/>
<path d="M24.7532 19.3316L19.9892 11.0801C19.8787 10.8886 19.9443 10.6437 20.1357 10.5332L26.8821 6.63826C27.0736 6.52779 27.3185 6.59333 27.429 6.78478L32.193 15.0362L24.7532 19.3316Z" fill="#16C7F0"/>
<path d="M37.1574 23.6344L32.1932 15.0361L24.7534 19.3315L27.5802 24.2276L31.855 26.6957L37.1574 23.6344Z" fill="#8AE3F7"/>
<path d="M31.8669 26.7026L41.7658 32.4177C41.9297 32.238 41.9687 31.9678 41.8406 31.746L37.1634 23.6448L31.8669 26.7026Z" fill="#E8F9FE"/>
<path d="M46.6378 35.1306L11.1694 14.6529C10.6343 14.3441 9.94509 14.5247 9.63341 15.0646C8.44925 17.1155 3.24436 26.1307 3.14426 26.3041C2.83278 26.8436 3.01098 27.5476 3.56281 27.8661C8.66301 30.8107 7.4678 30.1206 12.7613 33.1768V33.1769L14.3763 34.1093C15.5941 34.1093 41.5313 34.1093 42.8263 34.1093C43.6156 34.1093 44.3772 34.2293 45.0933 34.452C45.2126 34.4891 45.3307 34.5291 45.4475 34.5719C45.7977 34.7002 46.1361 34.8533 46.46 35.0295C46.53 35.0675 46.5984 35.1083 46.6669 35.1485C46.6569 35.1426 46.6477 35.1363 46.6378 35.1306Z" fill="white"/>
<path d="M15.898 31.1292L7.64654 26.3652C7.45499 26.2547 7.38945 26.0098 7.50002 25.8182L11.3949 19.0719C11.5054 18.8803 11.7503 18.8148 11.9419 18.9254L20.1933 23.6894L15.898 31.1292Z" fill="#16C7F0"/>
<path d="M28.7917 28.6536L20.1934 23.6894L15.8979 31.1292L21.0595 34.1092H25.6417L28.7917 28.6536Z" fill="#8AE3F7"/>
<path d="M36.9031 33.3367L28.8019 28.6595L25.6555 34.1091C25.9562 34.1091 36.8185 34.1091 37.1183 34.1091C37.2679 33.8364 37.1738 33.493 36.9031 33.3367Z" fill="#E8F9FE"/>
<path d="M36.903 33.3367L34.603 32.0089H26.8679L25.6553 34.1091C26.2802 34.1091 36.4897 34.1091 37.118 34.1091C37.2678 33.8364 37.1738 33.493 36.903 33.3367Z" fill="#00C3FF"/>
<path d="M36.903 33.3367L34.603 32.0089H26.8679L25.6553 34.1091C26.2802 34.1091 36.4897 34.1091 37.118 34.1091C37.2678 33.8364 37.1738 33.493 36.903 33.3367Z" fill="#00C3FF"/>
<path d="M46.4599 34.9292C46.2439 34.8118 46.0215 34.7047 45.7935 34.6081C45.6795 34.5599 45.5641 34.5144 45.4474 34.4717C44.6301 34.1725 43.7472 34.0091 42.8263 34.0091C42.1396 34.0091 2.5531 34.0091 1.87097 34.0091C1.25001 34.0091 0.746582 34.5124 0.746582 35.1335V48.1119C0.746582 48.7433 1.25828 49.2553 1.89 49.2553C2.57352 49.2553 42.1395 49.2553 42.8262 49.2553C50.6572 49.2554 53.4262 38.714 46.4599 34.9292ZM43.5886 43.9193C42.3255 43.9193 41.3016 42.8954 41.3016 41.6324C41.3016 40.3694 42.3255 39.3455 43.5886 39.3455C44.8516 39.3455 45.8755 40.3694 45.8755 41.6324C45.8755 42.8954 44.8516 43.9193 43.5886 43.9193Z" fill="white"/>
<path d="M14.4036 46.0632H4.87567C4.65454 46.0632 4.47534 45.884 4.47534 45.6629V37.8729C4.47534 37.6517 4.65454 37.4725 4.87567 37.4725H14.4036V46.0632Z" fill="#16C7F0"/>
<path opacity="0.5" d="M24.332 37.4724H14.4038V46.0634H24.332V37.4724Z" fill="#16C7F0"/>
<path opacity="0.1" d="M33.8459 46.0632H24.344V37.4725H33.8959C34.1038 37.4725 34.2724 37.6411 34.2724 37.849V45.6369C34.2723 45.8724 34.0813 46.0632 33.8459 46.0632Z" fill="#16C7F0"/>
<path d="M40.5549 41.6094C40.5549 43.284 41.9173 44.6465 43.5919 44.6465C45.2666 44.6465 46.629 43.284 46.629 41.6094C46.629 39.9347 45.2666 38.5724 43.5919 38.5724C41.9173 38.5725 40.5549 39.9348 40.5549 41.6094ZM45.1289 41.6094C45.1289 42.4569 44.4394 43.1463 43.592 43.1463C42.7446 43.1463 42.0552 42.4568 42.0552 41.6094C42.0552 40.762 42.7447 40.0726 43.592 40.0726C44.4394 40.0726 45.1289 40.762 45.1289 41.6094Z" fill="#16C7F0"/>
<path d="M33.8496 46.7905C34.4982 46.7905 35.0262 46.2628 35.0262 45.6139V37.826C35.0262 37.2049 34.5209 36.6995 33.8996 36.6995C32.9549 36.6995 6.38031 36.6995 4.87939 36.6995C4.24498 36.6995 3.729 37.2155 3.729 37.8499V45.6399C3.729 46.2743 4.24508 46.7903 4.87939 46.7903C5.80237 46.7905 32.3022 46.7905 33.8496 46.7905ZM25.0977 38.1997H33.5259V45.2902H25.0977V38.1997ZM5.22912 38.1997H13.6573V45.2902H5.22912V38.1997ZM23.5856 45.2903H15.1575V38.1998H23.5856V45.2903Z" fill="#16C7F0"/>
<path d="M22.5975 48.4826H1.89357C1.67663 48.4826 1.50022 48.3061 1.50022 48.0891V35.1108C1.50022 34.9044 1.66816 34.7365 1.87455 34.7365C2.24788 34.7365 42.6234 34.7365 42.8298 34.7365C43.7971 34.7365 44.7945 34.9432 45.7285 35.3787C48.029 36.8231 48.0773 37.0914 48.8499 38.2875C49.1446 38.825 49.3724 39.4089 49.5186 40.031C49.6133 40.4343 50.0178 40.6844 50.4204 40.5896C50.8236 40.4949 51.0737 40.0912 50.979 39.6879C50.5819 37.9984 51.9544 40.6645 29.6054 1.95524C29.0874 1.05796 27.942 0.750866 27.0447 1.26913L15.8051 7.75799C14.8988 8.28114 14.5887 9.4383 15.112 10.3446L19.9559 18.7345C17.1336 17.105 14.336 15.4899 11.5481 13.8804C10.6531 13.3637 9.50413 13.6715 8.98745 14.5666C8.92181 14.6803 2.84524 25.2051 2.4982 25.8062C1.98203 26.7004 2.27528 27.8641 3.19138 28.3928L11.5806 33.2363H1.87465C0.840902 33.2362 0 34.0772 0 35.1108V48.0892C0 49.1333 0.849369 49.9829 1.89357 49.9829H22.5976C23.0119 49.9829 23.3476 49.6471 23.3476 49.2328C23.3476 48.8185 23.0118 48.4826 22.5975 48.4826ZM8.32814 25.7677L11.8734 19.627L19.1724 23.8411L15.6272 29.9818L8.32814 25.7677ZM20.4715 24.5912L27.7705 28.8052L25.2123 33.2362H21.2641L16.9262 30.7318C17.371 29.9616 20.0244 25.3658 20.4715 24.5912ZM26.9583 33.2362L29.0801 29.5613L35.4452 33.2362H26.9583ZM25.0316 18.084L20.8176 10.7851L26.9581 7.23972L31.1723 14.5388C30.2815 15.053 25.9223 17.5698 25.0316 18.084ZM31.9223 15.8379L36.1364 23.1369L31.8727 25.5984C30.7064 24.9289 29.4604 24.213 28.1275 23.4463L25.7817 19.3831C26.6724 18.8689 31.0316 16.3522 31.9223 15.8379ZM33.3893 26.4689L36.8924 24.4463L40.3763 30.4807C38.4933 29.3955 36.1972 28.0801 33.3893 26.4689ZM16.4111 9.59448C16.3025 9.40622 16.3669 9.16597 16.5552 9.05719L27.7948 2.56804C27.9746 2.46425 28.2033 2.5267 28.3062 2.7051C28.99 3.88946 45.5172 32.5155 46.364 33.982C44.8038 33.081 45.2166 33.2908 42.6704 31.8085C42.6705 31.5822 42.6132 31.3545 42.4939 31.1479C41.9905 30.2761 28.5761 7.0416 28.0825 6.18665C27.7653 5.6373 27.0604 5.44834 26.5109 5.7655L19.7645 9.66053C19.214 9.97848 19.0255 10.6813 19.3434 11.2321C19.6721 11.8012 25.1945 21.3665 25.5329 21.9525C24.4184 21.3104 23.4983 20.7796 22.5543 20.2347L16.4111 9.59448ZM3.94124 27.0935C3.75219 26.9845 3.69083 26.7408 3.79731 26.5564C3.81783 26.5209 10.2645 15.3548 10.2866 15.3166C10.3899 15.1379 10.6192 15.0766 10.798 15.1795C13.0457 16.4771 34.6685 28.961 42.0724 33.2362H37.8521C37.6124 32.6088 39.2834 33.7199 12.3204 18.1529C11.7711 17.8359 11.066 18.0246 10.7488 18.5741L6.85382 25.3204C6.53667 25.8698 6.72563 26.5748 7.27497 26.892C7.58027 27.0684 17.4365 32.7587 18.2636 33.2363H14.5808L3.94124 27.0935Z" fill="#16C7F0"/>
<path d="M50.4214 42.6294C50.0183 42.5344 49.6143 42.7847 49.5196 43.188C48.7871 46.3053 46.0362 48.4824 42.8299 48.4824H26.098C25.6836 48.4824 25.3479 48.8182 25.3479 49.2325C25.3479 49.6468 25.6837 49.9825 26.098 49.9825H42.8299C46.736 49.9825 50.0874 47.3296 50.9799 43.531C51.0747 43.128 50.8246 42.7242 50.4214 42.6294Z" fill="#16C7F0"/>
</svg>
