<svg width="61" height="70" viewBox="0 0 61 70" fill="none" xmlns="http://www.w3.org/2000/svg">
<path d="M50.7365 39.6434C46.4591 46.9063 42.1378 46.8844 38.5843 48.7165C35.7547 50.1778 33.1882 53.6674 33.1882 57.7896C33.1882 63.5039 37.8385 68.1277 43.5856 68.1277C46.7881 68.1277 49.6397 66.71 51.5481 64.4635L52.9081 62.6969L55.7158 54.3436L56.5932 42.4352L50.7365 39.6434Z" fill="url(#paint0_linear)"/>
<path d="M54.0487 40.9085L50.7365 39.6653C46.4591 46.9282 42.1378 46.9064 38.5843 48.7384C35.7547 50.1997 33.1882 53.6894 33.1882 57.8115C33.1882 59.9271 33.8244 61.89 34.9211 63.5258C44.792 60.2106 52.7545 53.9729 54.0487 40.9085Z" fill="url(#paint1_linear)"/>
<path opacity="0.64" d="M54.0487 40.9085L50.7365 39.6653C46.4591 46.9282 42.1378 46.9064 38.5843 48.7384C35.7547 50.1997 33.1882 53.6894 33.1882 57.8115C33.1882 59.9271 33.8244 61.89 34.9211 63.5258C44.792 60.2106 52.7545 53.9729 54.0487 40.9085Z" fill="url(#paint2_radial)"/>
<path opacity="0.33" d="M50.9556 51.421C47.5118 57.637 41.677 61.2575 34.9429 63.5039C36.8074 66.2956 40.0757 65.4887 43.5854 64.6817C47.095 63.8747 46.5247 63.6784 48.4331 61.4319L51.0214 59.2727L52.2279 55.1288" fill="url(#paint3_radial)"/>
<path d="M0.0231934 6.81903C0.0231934 6.81903 3.79607 14.6489 10.9908 20.3632C16.1676 24.4854 24.7004 29.6108 39.0461 28.6075L40.9545 28.433C40.9545 28.433 39.9454 29.3054 38.9145 30.1778C37.8397 31.0721 36.37 32.0317 36.37 32.0317C36.37 32.0317 47.0964 33.6457 51.2421 41.432C53.8963 46.4265 58.0421 54.2564 50.1454 65.7504C50.1454 65.7504 55.366 61.9336 59.2485 50.2433C59.2485 50.2433 64.2717 37.179 57.1208 21.9772C57.1208 21.9772 53.5673 13.9074 46.8989 8.82557C46.8989 8.82557 47.2499 10.4832 47.2499 11.9444C47.2499 14.4308 47.1183 15.1724 47.1183 15.1724C47.1183 15.1724 41.1738 2.06438 28.0126 0.472233C17.8566 -0.770953 10.7934 0.145079 0.0231934 6.81903Z" fill="#46F1FF"/>
<path opacity="0.59" d="M60.1259 47.2338C61.1788 42.501 62.2317 32.7954 57.1647 22.0211C57.1647 22.0211 53.6111 13.9513 46.9428 8.86949C46.9428 8.86949 47.2938 10.5271 47.2938 11.9884C47.2938 14.4747 47.1622 15.2163 47.1622 15.2163C47.1622 15.2163 41.1738 2.06468 28.0126 0.472525C17.8566 -0.770662 10.7934 0.167181 0.0231934 6.81932C1.31738 6.5576 2.61156 6.3613 3.92768 6.20863C30.952 3.00252 55.5195 21.1923 60.1259 47.2338Z" fill="url(#paint4_linear)"/>
<path opacity="0.56" d="M59.4021 27.9971C58.8317 26.056 58.1079 24.0713 57.1427 22.0211C57.1427 22.0211 53.5892 13.9513 46.9209 8.86949C46.9209 8.86949 47.2718 10.5271 47.2718 11.9884C47.2718 14.4747 47.1402 15.2163 47.1402 15.2163C47.1402 15.2163 41.1738 2.06468 28.0126 0.472525C17.8566 -0.770662 10.7934 0.167181 0.0231934 6.81932C1.31738 6.55759 2.61156 6.3613 3.92768 6.20863C21.6075 4.11484 38.2345 11.1814 48.917 23.6132" fill="url(#paint5_linear)"/>
<path d="M10.9896 20.3633C16.1663 24.4854 24.6992 29.6108 39.0448 28.6076L40.9532 28.4331C40.9532 28.4331 39.9442 29.3055 38.9132 30.1779C37.8384 31.0721 36.3687 32.0318 36.3687 32.0318C36.3687 32.0318 47.0951 33.6457 51.2409 41.432C53.895 46.4266 58.0408 54.2565 50.1441 65.7505C50.1441 65.7505 55.3647 61.9337 59.2472 50.2434C59.2472 50.2434 59.664 49.1311 60.1027 47.1899C55.4963 21.1484 30.9288 2.95867 3.90448 6.16478C2.58837 6.31745 1.27225 6.53556 0 6.77547C0.109677 7.01538 3.88255 14.7144 10.9896 20.3633Z" fill="url(#paint6_linear)"/>
<path d="M35.7327 63.2421L27.0683 66.3174C26.4322 66.5355 25.9715 67.0589 25.796 67.6914L25.3135 69.458C25.2257 69.807 25.5767 70.1123 25.9057 69.9597L38.3869 64.5507L35.7327 63.2421Z" fill="url(#paint7_linear)"/>
<defs>
<linearGradient id="paint0_linear" x1="38.1545" y1="64.3478" x2="55.564" y2="43.2158" gradientUnits="userSpaceOnUse">
<stop offset="0.0251093" stop-color="#46F1FF"/>
<stop offset="0.3884" stop-color="#00C9F8"/>
<stop offset="0.5056" stop-color="#03BFF1"/>
<stop offset="0.7056" stop-color="#0CA4DD"/>
<stop offset="0.9627" stop-color="#1B78BD"/>
<stop offset="1" stop-color="#1D71B8"/>
</linearGradient>
<linearGradient id="paint1_linear" x1="34.2551" y1="61.0743" x2="47.3029" y2="47.5838" gradientUnits="userSpaceOnUse">
<stop stop-color="#00C9F8" stop-opacity="0.4"/>
<stop offset="0.2291" stop-color="#04C2F0" stop-opacity="0.3083"/>
<stop offset="0.5881" stop-color="#0EB0DA" stop-opacity="0.1647"/>
<stop offset="1" stop-color="#1D95B8" stop-opacity="0"/>
</linearGradient>
<radialGradient id="paint2_radial" cx="0" cy="0" r="1" gradientUnits="userSpaceOnUse" gradientTransform="translate(32.2271 48.9058) scale(16.8324 16.7365)">
<stop stop-color="#1D71B8" stop-opacity="0.7"/>
<stop offset="0.3457" stop-color="#1D79B8" stop-opacity="0.458"/>
<stop offset="0.8858" stop-color="#1D8FB8" stop-opacity="0.0799066"/>
<stop offset="1" stop-color="#1D95B8" stop-opacity="0"/>
</radialGradient>
<radialGradient id="paint3_radial" cx="0" cy="0" r="1" gradientUnits="userSpaceOnUse" gradientTransform="translate(37.5575 58.8786) scale(8.47883 8.43051)">
<stop offset="0.4072" stop-color="#46F1FF"/>
<stop offset="1" stop-color="#46F1FF" stop-opacity="0"/>
</radialGradient>
<linearGradient id="paint4_linear" x1="12.6476" y1="20.616" x2="54.2337" y2="24.9359" gradientUnits="userSpaceOnUse">
<stop stop-color="#00C9F8" stop-opacity="0.5"/>
<stop offset="0.5816" stop-color="#00C9F8" stop-opacity="0.6"/>
<stop offset="0.7449" stop-color="#00C3F8" stop-opacity="0.6781"/>
<stop offset="0.9698" stop-color="#00B1F8" stop-opacity="0.7856"/>
<stop offset="1" stop-color="#00AEF8" stop-opacity="0.8"/>
</linearGradient>
<linearGradient id="paint5_linear" x1="27.3758" y1="-2.84371" x2="29.1289" y2="12.5436" gradientUnits="userSpaceOnUse">
<stop stop-color="#1D71B8" stop-opacity="0.6"/>
<stop offset="1" stop-color="#46F1FF" stop-opacity="0"/>
</linearGradient>
<linearGradient id="paint6_linear" x1="49.2244" y1="44.8846" x2="10.0921" y2="-1.1201" gradientUnits="userSpaceOnUse">
<stop offset="0.00466153" stop-color="#35C0FF" stop-opacity="0.7"/>
<stop offset="0.468" stop-color="#46F1FF"/>
<stop offset="1" stop-color="#86FFF1"/>
</linearGradient>
<linearGradient id="paint7_linear" x1="25.5587" y1="68.8898" x2="36.4142" y2="63.5522" gradientUnits="userSpaceOnUse">
<stop stop-color="#00CAF8"/>
<stop offset="1" stop-color="#41EFFE"/>
</linearGradient>
</defs>
</svg>
