<svg width="71" height="82" viewBox="0 0 71 82" fill="none" xmlns="http://www.w3.org/2000/svg">
<path d="M59.1013 47C54.2247 55.4585 49.2291 55.3394 45.185 57.4838C41.9736 59.1516 39 63.2022 39 67.9675C39 74.639 44.3524 80 51.0132 80C54.7004 80 57.9119 78.3321 60.1718 75.7112L61.7181 73.6859L64.9295 64.0361L66 50.2166L59.1013 47Z" fill="url(#paint0_linear)"/>
<path d="M62 48.3448L58.2426 47C53.5743 54.9569 48.7921 54.8448 44.9208 56.8621C41.8465 58.431 39 62.2414 39 66.7241C39 69.0776 39.6832 71.2069 40.9356 73C51.7525 69.4138 60.5198 62.5776 62 48.3448Z" fill="url(#paint1_linear)"/>
<path opacity="0.33" d="M59.4524 61C55.5238 68.0771 48.7381 72.3233 41 74.8003C43.1429 77.985 46.9524 77.0413 51 76.0977C55.0476 75.1541 54.3333 74.9182 56.5952 72.3233L59.5714 69.8463L61 65.1283" fill="url(#paint2_radial)"/>
<path d="M0 7.95078C0 7.95078 4.34049 17.0932 12.7803 23.8297C18.8088 28.6415 28.816 34.6562 45.4546 33.4533L47.6248 33.2127C47.6248 33.2127 46.4191 34.2953 45.2134 35.2577C44.0077 36.3404 42.1992 37.423 42.1992 37.423C42.1992 37.423 54.8589 39.3477 59.6817 48.4901C62.8165 54.2643 67.6393 63.6473 58.3554 77C58.3554 77 64.3839 72.4288 68.9655 58.7152C68.9655 58.7152 74.8734 43.4377 66.5541 25.6341C66.5541 25.6341 62.4548 16.2511 54.6178 10.2364C54.6178 10.2364 54.9795 12.1611 54.9795 13.8452C54.9795 16.7323 54.8589 17.5744 54.8589 17.5744C54.8589 17.5744 47.9865 2.41722 32.6742 0.612798C20.8585 -0.951035 12.6598 0.131618 0 7.95078Z" fill="white"/>
<path opacity="0.47" d="M69.9632 56C71.1674 50.3838 72.492 38.9073 66.5915 26.0877C66.5915 26.0877 62.3768 16.4425 54.5496 10.338C54.5496 10.338 54.7905 12.4135 54.7905 14.1228C54.7905 17.053 54.7905 17.7855 54.7905 17.7855C54.7905 17.7855 47.9266 2.40206 32.6334 0.5707C20.8324 -0.894392 12.644 0.0823364 0 8.01825C1.44502 7.77407 3.01046 7.52989 4.57591 7.2857C36.0052 3.50088 64.6648 25.111 69.9632 56Z" fill="url(#paint3_linear)"/>
<path opacity="0.73" d="M12.8152 24.125C18.8601 28.9318 28.8946 34.9404 45.5786 33.4983L47.7547 33.258C47.7547 33.258 46.4249 34.3395 45.2159 35.3009C44.0069 36.3824 42.1934 37.4639 42.1934 37.4639C42.1934 37.4639 54.8877 39.5068 59.7237 48.6398C62.867 54.408 67.7029 63.6611 58.3938 77C58.3938 77 64.4387 72.5537 69.0328 58.8543C69.0328 58.8543 69.5164 57.5324 70 55.2492C64.9223 25.0864 36.1485 3.69605 4.59413 7.42134C3.02245 7.66168 1.57168 7.90202 0 8.14236C0.120898 8.3827 4.59413 17.5156 12.8152 24.125Z" fill="url(#paint4_linear)"/>
<path d="M41.7294 73L31.1628 77.0788C30.4081 77.3507 29.7791 78.0305 29.6533 78.8463L29.0244 81.2935C28.8986 81.7014 29.276 82.1093 29.7791 81.9733L45 74.7675L41.7294 73Z" fill="white"/>
<defs>
<linearGradient id="paint0_linear" x1="44.3905" y1="75.9642" x2="64.5706" y2="51.648" gradientUnits="userSpaceOnUse">
<stop offset="0.0251093" stop-color="white"/>
<stop offset="0.5217" stop-color="#A0E0F8"/>
<stop offset="1" stop-color="#2FBDF2"/>
</linearGradient>
<linearGradient id="paint1_linear" x1="40.0983" y1="70.346" x2="54.3005" y2="55.5121" gradientUnits="userSpaceOnUse">
<stop stop-color="#00C9F8" stop-opacity="0.4"/>
<stop offset="0.2291" stop-color="#04C2F0" stop-opacity="0.3083"/>
<stop offset="0.5881" stop-color="#0EB0DA" stop-opacity="0.1647"/>
<stop offset="1" stop-color="#1D95B8" stop-opacity="0"/>
</linearGradient>
<radialGradient id="paint2_radial" cx="0" cy="0" r="1" gradientUnits="userSpaceOnUse" gradientTransform="translate(44.6883 75.7763) scale(8.18583 8.11043)">
<stop offset="0.4072" stop-color="white"/>
<stop offset="1" stop-color="#46F1FF" stop-opacity="0"/>
</radialGradient>
<linearGradient id="paint3_linear" x1="14.7568" y1="24.4877" x2="63.1731" y2="29.4198" gradientUnits="userSpaceOnUse">
<stop stop-color="#00C9F8" stop-opacity="0.5"/>
<stop offset="0.5816" stop-color="#00C9F8" stop-opacity="0.6"/>
<stop offset="0.7449" stop-color="#00C3F8" stop-opacity="0.6781"/>
<stop offset="0.9698" stop-color="#00B1F8" stop-opacity="0.7856"/>
<stop offset="1" stop-color="#00AEF8" stop-opacity="0.8"/>
</linearGradient>
<linearGradient id="paint4_linear" x1="36.3162" y1="45.4056" x2="33.1804" y2="11.0034" gradientUnits="userSpaceOnUse">
<stop offset="0.1051" stop-color="#35C0FF" stop-opacity="0.7"/>
<stop offset="0.1798" stop-color="#52CDFF" stop-opacity="0.725"/>
<stop offset="0.2892" stop-color="#76DCFF" stop-opacity="0.7617"/>
<stop offset="0.4049" stop-color="#93E9FF" stop-opacity="0.8005"/>
<stop offset="0.527" stop-color="#AAF3FF" stop-opacity="0.8414"/>
<stop offset="0.6582" stop-color="#BAFAFF" stop-opacity="0.8854"/>
<stop offset="0.8051" stop-color="#C4FEFF" stop-opacity="0.9347"/>
<stop offset="1" stop-color="#C7FFFF"/>
</linearGradient>
</defs>
</svg>
