<svg width="1105" height="920" viewBox="0 0 1105 920" fill="none" xmlns="http://www.w3.org/2000/svg">
<path d="M918.901 595C841.412 726.313 763.129 725.919 698.754 759.043C647.493 785.463 601 848.557 601 923.086C601 1026.4 685.244 1110 789.356 1110C847.373 1110 899.032 1084.37 933.604 1043.75L958.241 1011.81L1009.1 860.781L1025 645.475L918.901 595Z" fill="url(#paint0_linear)"/>
<path opacity="0.33" d="M922.962 809C860.6 921.131 754.943 986.443 633 1026.97C666.763 1077.33 725.947 1062.77 789.5 1048.21C853.053 1033.66 842.726 1030.11 877.283 989.59L924.154 950.639L946 875.885" fill="url(#paint1_radial)"/>
<path d="M0 3.10468C0 3.10468 68.3505 144.459 198.693 247.62C292.477 322.037 447.06 414.567 706.951 396.455L741.523 393.305C741.523 393.305 723.244 409.054 704.566 424.804C685.095 440.948 658.47 458.272 658.47 458.272C658.47 458.272 852.792 487.409 927.898 627.976C975.982 718.143 1051.09 859.497 908.028 1067C908.028 1067 1002.61 998.095 1072.94 787.048C1072.94 787.048 1163.95 551.196 1034.4 276.757C1034.4 276.757 970.021 131.071 849.215 39.3291C849.215 39.3291 855.573 69.2536 855.573 95.6344C855.573 140.521 853.189 153.909 853.189 153.909C853.189 153.909 745.497 -82.7314 507.065 -111.475C323.075 -133.918 195.117 -117.381 0 3.10468Z" fill="#46F1FF"/>
<path opacity="0.59" d="M1089.17 733C1108.25 647.524 1127.33 472.238 1035.51 277.651C1035.51 277.651 971.112 131.908 850.269 40.1289C850.269 40.1289 856.63 70.0653 856.63 96.4567C856.63 141.361 854.245 154.754 854.245 154.754C854.245 154.754 745.725 -82.7681 507.22 -111.523C323.174 -133.975 195.176 -117.037 0 3.10223C23.453 -1.62458 46.9059 -5.16968 70.7564 -7.92699C560.486 -65.8304 1005.7 262.683 1089.17 733Z" fill="url(#paint2_linear)"/>
<path opacity="0.56" d="M1076 386C1065.67 350.914 1052.55 315.039 1035.06 277.982C1035.06 277.982 970.666 132.117 849.829 40.262C849.829 40.262 856.189 70.2233 856.189 96.6366C856.189 141.579 853.804 154.982 853.804 154.982C853.804 154.982 745.687 -82.7371 507.195 -111.516C323.158 -133.987 195.167 -117.035 0 3.20457C23.4518 -1.52616 46.9036 -5.07421 70.7529 -7.83381C391.128 -45.6797 692.424 82.0502 886.001 306.76" fill="url(#paint3_linear)"/>
<path d="M199.12 247.861C292.917 322.257 447.523 414.759 707.453 396.652L742.03 393.503C742.03 393.503 723.748 409.248 705.068 424.993C685.593 441.132 658.964 458.452 658.964 458.452C658.964 458.452 853.315 487.58 928.432 628.105C976.523 718.246 1051.64 859.558 908.56 1067C908.56 1067 1003.15 998.115 1073.5 787.131C1073.5 787.131 1081.05 767.056 1089 732.023C1005.54 262.032 560.398 -66.2536 70.7453 -8.39037C46.8985 -5.63498 23.0518 -1.6987 0 2.6312C1.98723 6.96111 70.3478 145.912 199.12 247.861Z" fill="url(#paint4_linear)"/>
<defs>
<linearGradient id="paint0_linear" x1="690.967" y1="1041.66" x2="1005.62" y2="658.981" gradientUnits="userSpaceOnUse">
<stop offset="0.0251093" stop-color="#46F1FF"/>
<stop offset="0.3884" stop-color="#00C9F8"/>
<stop offset="0.5056" stop-color="#03BFF1"/>
<stop offset="0.7056" stop-color="#0CA4DD"/>
<stop offset="0.9627" stop-color="#1B78BD"/>
<stop offset="1" stop-color="#1D71B8"/>
</linearGradient>
<radialGradient id="paint1_radial" cx="0" cy="0" r="1" gradientUnits="userSpaceOnUse" gradientTransform="translate(680.346 943.53) scale(153.536 152.08)">
<stop offset="0.4072" stop-color="#46F1FF"/>
<stop offset="1" stop-color="#46F1FF" stop-opacity="0"/>
</radialGradient>
<linearGradient id="paint2_linear" x1="228.778" y1="252.274" x2="982.339" y2="330.82" gradientUnits="userSpaceOnUse">
<stop stop-color="#00C9F8" stop-opacity="0.5"/>
<stop offset="0.5816" stop-color="#00C9F8" stop-opacity="0.6"/>
<stop offset="0.7449" stop-color="#00C3F8" stop-opacity="0.6781"/>
<stop offset="0.9698" stop-color="#00B1F8" stop-opacity="0.7856"/>
<stop offset="1" stop-color="#00AEF8" stop-opacity="0.8"/>
</linearGradient>
<linearGradient id="paint3_linear" x1="495.654" y1="-171.458" x2="527.264" y2="106.69" gradientUnits="userSpaceOnUse">
<stop stop-color="#1D71B8" stop-opacity="0.6"/>
<stop offset="1" stop-color="#46F1FF" stop-opacity="0"/>
</linearGradient>
<linearGradient id="paint4_linear" x1="891.896" y1="690.416" x2="186.096" y2="-142.609" gradientUnits="userSpaceOnUse">
<stop offset="0.00466153" stop-color="#35C0FF" stop-opacity="0.7"/>
<stop offset="0.468" stop-color="#46F1FF"/>
<stop offset="1" stop-color="#86FFF1"/>
</linearGradient>
</defs>
</svg>
