<?xml version="1.0" encoding="utf-8"?>
<!-- Generator: Adobe Illustrator 23.0.1, SVG Export Plug-In . SVG Version: 6.00 Build 0)  -->
<svg version="1.1" id="Слой_1" xmlns="http://www.w3.org/2000/svg" xmlns:xlink="http://www.w3.org/1999/xlink" x="0px" y="0px"
	 viewBox="0 0 966.75 556.88" style="enable-background:new 0 0 966.75 556.88;" xml:space="preserve">
<style type="text/css">
	.st0{fill:#8CECF9;}
	.st1{fill:#BBF6FF;}
	.st2{opacity:0.7;}
	.st3{fill:#FFFFFF;}
	.st4{opacity:0.73;}
	.st5{opacity:0.52;}
	.st6{fill:#00F1FF;}
	.st7{fill:#00CBFC;}
	.st8{fill:#FFBE4A;}
	.st9{fill:#5173B7;}
	.st10{fill:#EAA536;}
	.st11{fill:#F9C573;}
	.st12{opacity:0.66;}
	.st13{fill:#07B6D3;}
	.st14{fill:#F7B141;}
	.st15{fill:#00B8D6;}
	.st16{fill:#00CDD9;}
	.st17{fill:#EDA635;}
	.st18{fill:#E4EAEA;}
	.st19{fill:#B5B5B5;}
	.st20{fill:#BA8867;}
</style>
<g>
	<path class="st0" d="M184.26,473.31h-66V138.44c0-14.29,11.58-25.88,25.88-25.88h14.25c14.29,0,25.88,11.58,25.88,25.88V473.31z"/>
</g>
<g>
	<rect x="184.26" y="140.56" class="st1" width="10.75" height="13.25"/>
</g>
<g>
	<path class="st0" d="M202.54,163.81h-6.06c-1.48,0-2.67-1.2-2.67-2.67v-27.91c0-1.48,1.2-2.67,2.67-2.67h6.06
		c1.48,0,2.67,1.2,2.67,2.67v27.91C205.21,162.62,204.01,163.81,202.54,163.81z"/>
</g>
<g>
	<path class="st1" d="M213.94,171.5h-6.06c-1.48,0-2.67-1.2-2.67-2.67v-43.28c0-1.48,1.2-2.67,2.67-2.67h6.06
		c1.48,0,2.67,1.2,2.67,2.67v43.28C216.61,170.3,215.41,171.5,213.94,171.5z"/>
</g>
<g>
	<rect x="184.26" y="329.26" class="st1" width="10.75" height="13.25"/>
</g>
<g>
	<path class="st0" d="M202.54,352.51h-6.06c-1.48,0-2.67-1.2-2.67-2.67v-27.91c0-1.48,1.2-2.67,2.67-2.67h6.06
		c1.48,0,2.67,1.2,2.67,2.67v27.91C205.21,351.32,204.01,352.51,202.54,352.51z"/>
</g>
<g>
	<path class="st1" d="M213.94,360.2h-6.06c-1.48,0-2.67-1.2-2.67-2.67v-43.28c0-1.48,1.2-2.67,2.67-2.67h6.06
		c1.48,0,2.67,1.2,2.67,2.67v43.28C216.61,359,215.41,360.2,213.94,360.2z"/>
</g>
<g>
	<rect x="769.61" y="329.26" class="st1" width="10.75" height="13.25"/>
</g>
<g>
	<path class="st0" d="M762.08,352.51h6.06c1.48,0,2.67-1.2,2.67-2.67v-27.91c0-1.48-1.2-2.67-2.67-2.67h-6.06
		c-1.48,0-2.67,1.2-2.67,2.67v27.91C759.41,351.32,760.6,352.51,762.08,352.51z"/>
</g>
<g>
	<path class="st1" d="M750.68,360.2h6.06c1.48,0,2.67-1.2,2.67-2.67v-43.28c0-1.48-1.2-2.67-2.67-2.67h-6.06
		c-1.48,0-2.67,1.2-2.67,2.67v43.28C748.01,359,749.2,360.2,750.68,360.2z"/>
</g>
<g>
	<path class="st0" d="M780.36,473.31h66V138.44c0-14.29-11.58-25.88-25.88-25.88h-14.25c-14.29,0-25.88,11.58-25.88,25.88V473.31z"
		/>
</g>
<g>
	<rect x="769.61" y="140.56" class="st1" width="10.75" height="13.25"/>
</g>
<g>
	<path class="st0" d="M762.08,163.81h6.06c1.48,0,2.67-1.2,2.67-2.67v-27.91c0-1.48-1.2-2.67-2.67-2.67h-6.06
		c-1.48,0-2.67,1.2-2.67,2.67v27.91C759.41,162.62,760.6,163.81,762.08,163.81z"/>
</g>
<g>
	<path class="st1" d="M750.68,171.5h6.06c1.48,0,2.67-1.2,2.67-2.67v-43.28c0-1.48-1.2-2.67-2.67-2.67h-6.06
		c-1.48,0-2.67,1.2-2.67,2.67v43.28C748.01,170.3,749.2,171.5,750.68,171.5z"/>
</g>
<g>
	<path class="st0" d="M728.31,419.81h-492c-10.88,0-19.7-8.82-19.7-19.7V76.01c0-10.88,8.82-19.7,19.7-19.7h492
		c10.88,0,19.7,8.82,19.7,19.7v324.1C748.01,410.99,739.19,419.81,728.31,419.81z"/>
</g>
<g class="st2">
	<g>
		<path class="st3" d="M727.31,410.06H235.96c-5.36,0-9.7-4.34-9.7-9.7V75.76c0-5.36,4.34-9.7,9.7-9.7h491.35
			c5.36,0,9.7,4.34,9.7,9.7v324.6C737.01,405.72,732.67,410.06,727.31,410.06z"/>
	</g>
</g>
<g>
	<path class="st1" d="M941.48,488.54H20.86v0c0-9.88,8.01-17.89,17.89-17.89h884.83C933.47,470.65,941.48,478.66,941.48,488.54
		L941.48,488.54z"/>
</g>
<g class="st4">
	<g>
		<polygon class="st0" points="502.09,113.39 502.09,106.89 488.05,120.95 		"/>
	</g>
	<g>
		<polygon class="st0" points="481.67,86.44 502.09,106.89 502.09,86.44 		"/>
	</g>
	<g>
		<polygon class="st0" points="519.23,93.64 523.14,93.64 519.23,89.72 512.17,96.79 513.23,97.87 502.09,86.44 502.09,113.39 
			519.23,104.02 519.23,104.02 		"/>
	</g>
</g>
<g class="st4">
	<path class="st0" d="M477.73,282.32H266.13c-2.16,0-3.9-1.75-3.9-3.9V151.09c0-2.16,1.75-3.9,3.9-3.9h211.59
		c2.16,0,3.9,1.75,3.9,3.9v127.33C481.63,280.57,479.89,282.32,477.73,282.32z"/>
</g>
<g class="st4">
	<path class="st0" d="M610.61,259h-92.42c-3.93,0-7.11,3.18-7.11,7.11v9.31c0,3.93,3.18,7.11,7.11,7.11h92.42
		c3.93,0,7.11-3.18,7.11-7.11v-9.31C617.72,262.18,614.54,259,610.61,259z"/>
</g>
<g class="st4">
	<path class="st0" d="M692.36,259h-42.75c-3.93,0-7.11,3.18-7.11,7.11v9.31c0,3.93,3.18,7.11,7.11,7.11h42.75
		c3.93,0,7.11-3.18,7.11-7.11v-9.31C699.48,262.18,696.29,259,692.36,259z"/>
</g>
<g class="st5">
	<path class="st0" d="M699.09,318.92H323.07c-1.33,0-2.41,1.08-2.41,2.41v0.61c0,1.33,1.08,2.41,2.41,2.41h376.02
		c1.33,0,2.41-1.08,2.41-2.41v-0.61C701.5,320,700.42,318.92,699.09,318.92z"/>
</g>
<g class="st5">
	<path class="st0" d="M699.09,333.33H323.07c-1.33,0-2.41,1.08-2.41,2.41v0.61c0,1.33,1.08,2.41,2.41,2.41h376.02
		c1.33,0,2.41-1.08,2.41-2.41v-0.61C701.5,334.41,700.42,333.33,699.09,333.33z"/>
</g>
<g class="st5">
	<path class="st0" d="M699.09,347.74H323.07c-1.33,0-2.41,1.08-2.41,2.41v0.61c0,1.33,1.08,2.41,2.41,2.41h376.02
		c1.33,0,2.41-1.08,2.41-2.41v-0.61C701.5,348.82,700.42,347.74,699.09,347.74z"/>
</g>
<g class="st5">
	<path class="st0" d="M586.06,362.6H323.07c-1.33,0-2.41,1.08-2.41,2.41l0,0c0,1.33,1.08,2.41,2.41,2.41h262.99
		c1.33,0,2.41-1.08,2.41-2.41l0,0C588.47,363.68,587.39,362.6,586.06,362.6z"/>
</g>
<g class="st5">
	<path class="st0" d="M698.59,162.76h-184.6c-1.61,0-2.91,1.3-2.91,2.91v0.73c0,1.61,1.3,2.91,2.91,2.91h184.6
		c1.61,0,2.91-1.3,2.91-2.91v-0.73C701.5,164.06,700.2,162.76,698.59,162.76z"/>
</g>
<g class="st5">
	<path class="st0" d="M698.59,180.12h-184.6c-1.61,0-2.91,1.3-2.91,2.91v0.73c0,1.61,1.3,2.91,2.91,2.91h184.6
		c1.61,0,2.91-1.3,2.91-2.91v-0.73C701.5,181.43,700.2,180.12,698.59,180.12z"/>
</g>
<g class="st5">
	<path class="st0" d="M698.59,197.49h-184.6c-1.61,0-2.91,1.3-2.91,2.91v0.73c0,1.61,1.3,2.91,2.91,2.91h184.6
		c1.61,0,2.91-1.3,2.91-2.91v-0.73C701.5,198.79,700.2,197.49,698.59,197.49z"/>
</g>
<g class="st5">
	<path class="st0" d="M642.08,215.4H513.99c-1.61,0-2.91,1.3-2.91,2.91l0,0c0,1.61,1.3,2.91,2.91,2.91h128.09
		c1.61,0,2.91-1.3,2.91-2.91l0,0C644.99,216.71,643.68,215.4,642.08,215.4z"/>
</g>
<g class="st5">
	<path class="st0" d="M688.7,232.85H513.99c-1.61,0-2.91,1.3-2.91,2.91l0,0c0,1.61,1.3,2.91,2.91,2.91H688.7
		c1.61,0,2.91-1.3,2.91-2.91l0,0C691.6,234.15,690.3,232.85,688.7,232.85z"/>
</g>
<g class="st5">
	<circle class="st0" cx="269.21" cy="86.69" r="6.66"/>
</g>
<g class="st5">
	<circle class="st0" cx="292.68" cy="86.69" r="6.66"/>
</g>
<g class="st5">
	<circle class="st0" cx="315.5" cy="86.69" r="6.66"/>
</g>
<g>
	<g>
		<rect x="227.54" y="143.78" class="st0" width="4" height="2"/>
	</g>
	<g>
		<path class="st0" d="M722.88,145.78h-7.92v-2h7.92V145.78z M707.03,145.78h-7.92v-2h7.92V145.78z M691.18,145.78h-7.92v-2h7.92
			V145.78z M675.33,145.78h-7.92v-2h7.92V145.78z M659.48,145.78h-7.92v-2h7.92V145.78z M643.63,145.78h-7.92v-2h7.92V145.78z
			 M627.78,145.78h-7.92v-2h7.92V145.78z M611.93,145.78H604v-2h7.92V145.78z M596.08,145.78h-7.92v-2h7.92V145.78z M580.23,145.78
			h-7.92v-2h7.92V145.78z M564.38,145.78h-7.92v-2h7.92V145.78z M548.53,145.78h-7.92v-2h7.92V145.78z M532.68,145.78h-7.92v-2h7.92
			V145.78z M516.83,145.78h-7.92v-2h7.92V145.78z M500.98,145.78h-7.92v-2h7.92V145.78z M485.13,145.78h-7.92v-2h7.92V145.78z
			 M469.28,145.78h-7.92v-2h7.92V145.78z M453.43,145.78h-7.92v-2h7.92V145.78z M437.59,145.78h-7.92v-2h7.92V145.78z
			 M421.74,145.78h-7.92v-2h7.92V145.78z M405.89,145.78h-7.92v-2h7.92V145.78z M390.04,145.78h-7.92v-2h7.92V145.78z
			 M374.19,145.78h-7.92v-2h7.92V145.78z M358.34,145.78h-7.92v-2h7.92V145.78z M342.49,145.78h-7.92v-2h7.92V145.78z
			 M326.64,145.78h-7.92v-2h7.92V145.78z M310.79,145.78h-7.92v-2h7.92V145.78z M294.94,145.78h-7.92v-2h7.92V145.78z
			 M279.09,145.78h-7.92v-2h7.92V145.78z M263.24,145.78h-7.92v-2h7.92V145.78z M247.39,145.78h-7.92v-2h7.92V145.78z"/>
	</g>
	<g>
		<rect x="730.8" y="143.78" class="st0" width="4" height="2"/>
	</g>
</g>
<g>
	<g>
		<rect x="242.25" y="80.37" class="st0" width="2" height="4"/>
	</g>
	<g>
		<path class="st0" d="M244.25,406.78h-2v-8.06h2V406.78z M244.25,390.66h-2v-8.06h2V390.66z M244.25,374.54h-2v-8.06h2V374.54z
			 M244.25,358.42h-2v-8.06h2V358.42z M244.25,342.3h-2v-8.06h2V342.3z M244.25,326.18h-2v-8.06h2V326.18z M244.25,310.06h-2V302h2
			V310.06z M244.25,293.94h-2v-8.06h2V293.94z M244.25,277.81h-2v-8.06h2V277.81z M244.25,261.69h-2v-8.06h2V261.69z M244.25,245.57
			h-2v-8.06h2V245.57z M244.25,229.45h-2v-8.06h2V229.45z M244.25,213.33h-2v-8.06h2V213.33z M244.25,197.21h-2v-8.06h2V197.21z
			 M244.25,181.09h-2v-8.06h2V181.09z M244.25,164.97h-2v-8.06h2V164.97z M244.25,148.85h-2v-8.06h2V148.85z M244.25,132.73h-2
			v-8.06h2V132.73z M244.25,116.61h-2v-8.06h2V116.61z M244.25,100.49h-2v-8.06h2V100.49z"/>
	</g>
	<g>
		<rect x="242.25" y="414.84" class="st0" width="2" height="4"/>
	</g>
</g>
<g>
	<g>
		<rect x="719.4" y="80.37" class="st0" width="2" height="4"/>
	</g>
	<g>
		<path class="st0" d="M721.4,406.78h-2v-8.06h2V406.78z M721.4,390.66h-2v-8.06h2V390.66z M721.4,374.54h-2v-8.06h2V374.54z
			 M721.4,358.42h-2v-8.06h2V358.42z M721.4,342.3h-2v-8.06h2V342.3z M721.4,326.18h-2v-8.06h2V326.18z M721.4,310.06h-2V302h2
			V310.06z M721.4,293.94h-2v-8.06h2V293.94z M721.4,277.81h-2v-8.06h2V277.81z M721.4,261.69h-2v-8.06h2V261.69z M721.4,245.57h-2
			v-8.06h2V245.57z M721.4,229.45h-2v-8.06h2V229.45z M721.4,213.33h-2v-8.06h2V213.33z M721.4,197.21h-2v-8.06h2V197.21z
			 M721.4,181.09h-2v-8.06h2V181.09z M721.4,164.97h-2v-8.06h2V164.97z M721.4,148.85h-2v-8.06h2V148.85z M721.4,132.73h-2v-8.06h2
			V132.73z M721.4,116.61h-2v-8.06h2V116.61z M721.4,100.49h-2v-8.06h2V100.49z"/>
	</g>
	<g>
		<rect x="719.4" y="414.84" class="st0" width="2" height="4"/>
	</g>
</g>
<g>
	<g>
		<rect x="227.54" y="305.96" class="st0" width="4" height="2"/>
	</g>
	<g>
		<path class="st0" d="M724.61,307.96h-7.95v-2h7.95V307.96z M708.7,307.96h-7.95v-2h7.95V307.96z M692.8,307.96h-7.95v-2h7.95
			V307.96z M676.89,307.96h-7.95v-2h7.95V307.96z M660.99,307.96h-7.95v-2h7.95V307.96z M645.08,307.96h-7.95v-2h7.95V307.96z
			 M629.18,307.96h-7.95v-2h7.95V307.96z M613.27,307.96h-7.95v-2h7.95V307.96z M597.37,307.96h-7.95v-2h7.95V307.96z
			 M581.46,307.96h-7.95v-2h7.95V307.96z M565.55,307.96h-7.95v-2h7.95V307.96z M549.65,307.96h-7.95v-2h7.95V307.96z
			 M533.74,307.96h-7.95v-2h7.95V307.96z M517.84,307.96h-7.95v-2h7.95V307.96z M501.93,307.96h-7.95v-2h7.95V307.96z
			 M486.03,307.96h-7.95v-2h7.95V307.96z M470.12,307.96h-7.95v-2h7.95V307.96z M454.22,307.96h-7.95v-2h7.95V307.96z
			 M438.31,307.96h-7.95v-2h7.95V307.96z M422.41,307.96h-7.95v-2h7.95V307.96z M406.5,307.96h-7.95v-2h7.95V307.96z M390.6,307.96
			h-7.95v-2h7.95V307.96z M374.69,307.96h-7.95v-2h7.95V307.96z M358.79,307.96h-7.95v-2h7.95V307.96z M342.88,307.96h-7.95v-2h7.95
			V307.96z M326.97,307.96h-7.95v-2h7.95V307.96z M311.07,307.96h-7.95v-2h7.95V307.96z M295.16,307.96h-7.95v-2h7.95V307.96z
			 M279.26,307.96h-7.95v-2h7.95V307.96z M263.35,307.96h-7.95v-2h7.95V307.96z M247.45,307.96h-7.95v-2h7.95V307.96z"/>
	</g>
	<g>
		<rect x="732.56" y="305.96" class="st0" width="4" height="2"/>
	</g>
</g>
<g>
	<g>
		<rect x="227.54" y="396.91" class="st0" width="4" height="2"/>
	</g>
	<g>
		<path class="st0" d="M724.61,398.91h-7.95v-2h7.95V398.91z M708.7,398.91h-7.95v-2h7.95V398.91z M692.8,398.91h-7.95v-2h7.95
			V398.91z M676.89,398.91h-7.95v-2h7.95V398.91z M660.99,398.91h-7.95v-2h7.95V398.91z M645.08,398.91h-7.95v-2h7.95V398.91z
			 M629.18,398.91h-7.95v-2h7.95V398.91z M613.27,398.91h-7.95v-2h7.95V398.91z M597.37,398.91h-7.95v-2h7.95V398.91z
			 M581.46,398.91h-7.95v-2h7.95V398.91z M565.55,398.91h-7.95v-2h7.95V398.91z M549.65,398.91h-7.95v-2h7.95V398.91z
			 M533.74,398.91h-7.95v-2h7.95V398.91z M517.84,398.91h-7.95v-2h7.95V398.91z M501.93,398.91h-7.95v-2h7.95V398.91z
			 M486.03,398.91h-7.95v-2h7.95V398.91z M470.12,398.91h-7.95v-2h7.95V398.91z M454.22,398.91h-7.95v-2h7.95V398.91z
			 M438.31,398.91h-7.95v-2h7.95V398.91z M422.41,398.91h-7.95v-2h7.95V398.91z M406.5,398.91h-7.95v-2h7.95V398.91z M390.6,398.91
			h-7.95v-2h7.95V398.91z M374.69,398.91h-7.95v-2h7.95V398.91z M358.79,398.91h-7.95v-2h7.95V398.91z M342.88,398.91h-7.95v-2h7.95
			V398.91z M326.97,398.91h-7.95v-2h7.95V398.91z M311.07,398.91h-7.95v-2h7.95V398.91z M295.16,398.91h-7.95v-2h7.95V398.91z
			 M279.26,398.91h-7.95v-2h7.95V398.91z M263.35,398.91h-7.95v-2h7.95V398.91z M247.45,398.91h-7.95v-2h7.95V398.91z"/>
	</g>
	<g>
		<rect x="732.56" y="396.91" class="st0" width="4" height="2"/>
	</g>
</g>
<g>
	<path class="st6" d="M321.99,378c0,0-5.06-54.11-12.77-67.18l-13.35-45.73c0,0-0.21-0.01-0.62-0.03l-1.18-3.67l4.67,0.38l3.48-2.08
		l1.96-4.4l-1.45-4.28l-3.36-3.33l-11.76-3.77l2.94-2.82v-5.83l-4.46-3.32l-20.13-2.88l-17,1.11l-15.8,5.55l-8.83,5.41l-6.3,5.01
		l-9.81,16.01l-5.53,20.07l-0.84,12.37l0.45,0.94c-0.45,0.4,0,0-0.45,0.41c0,0,8.39,70.14,3.1,92.7c0,0-0.66,78.8-12.03,109.12
		l4.11,3.04h6.38c0,0,21.46-30.73,48.8-29.62c0,0,39.61-1.99,47.36,25.57l10.33,1.01l3.65-19.84
		C313.54,477.92,323.85,424.59,321.99,378z"/>
</g>
<g>
	<path class="st7" d="M315.66,332.59c0,0,22.95-20.84,23.82-43.05l-1.29-8.55l-2.63-5.27l-4.17-11.92l1.92-4.95l2.81-1.01l6.57,2.69
		l8.18,8.67l4.16-11.36l-1.44-15.9l-2.17-6.39l0.7-5.67l4.14-4.55l4.83-0.28l8.41,4.59l8.55,8.44l7.68,15.23l2.55,13.99l0.62,24.42
		l-2.2,12.01l-3.76,17.56l-8.3,19.83l-9.81,17.81l-11.98,14.55l-11.74,11.39l-17.75,12.48l-1.38,1.19
		C321.99,398.55,320.37,341.81,315.66,332.59z"/>
</g>
<g>
	<path class="st8" d="M192.44,499.3l-3.97,12.72l-26.59,2.94l-4.4,0.73l-1.69,2.02l0.62,3.53l2.99,1.38h16.01l-15.76,11.09
		l0.94,4.24l4.42,0.66l21.18-11.82l-8.68,14.76l2.98,3.72l4.82-1.68l16.23-21.06l15.25-10.17l-0.91-3.41l-16.33,3.64l3.86-11.79
		C203.41,500.79,193.59,500.43,192.44,499.3z"/>
</g>
<g>
	<path class="st8" d="M309.89,497.76l4.56,14.26l26.59,2.94l4.4,0.73l1.69,2.02l-0.62,3.53l-2.99,1.38h-16.01l15.76,11.09
		l-0.94,4.24l-4.42,0.66l-21.18-11.82l8.68,14.76l-2.98,3.72l-4.82-1.68l-16.23-21.06l-15.25-10.17l0.91-3.41l16.33,3.64
		l-4.86-14.82C298.51,497.76,308.74,498.89,309.89,497.76z"/>
</g>
<g>
	<ellipse class="st3" cx="203.76" cy="309.78" rx="13.58" ry="12.18"/>
</g>
<g>
	
		<ellipse transform="matrix(0.5417 -0.8406 0.8406 0.5417 -110.7058 393.7758)" class="st3" cx="305.75" cy="298.41" rx="11.47" ry="13.58"/>
</g>
<g>
	<polygon class="st8" points="229.99,315.79 226,317.56 223.84,326.02 224.28,331.4 238.53,339.17 256.82,344.39 268.26,342.85 
		282.02,335.24 289.62,327.64 292.35,321.32 293.55,317.13 291.5,309.78 286.72,307.73 282.45,307.73 269.97,303.72 250.81,304.16 
		235.97,309.38 	"/>
</g>
<g>
	<polygon class="st3" points="232.85,322.47 229.99,324.05 230.26,327.81 235.54,331.4 250.81,335.88 266.21,335.59 276.29,330.29 
		283.56,324.74 286.97,319.69 286.12,317.22 283.04,317.9 272.54,325.33 261.6,328.07 252.2,328.07 240.33,324.91 	"/>
</g>
<g>
	<path class="st7" d="M193.91,401.61l11.04-15.82c0,0,3.29-29.45,0.71-35.74l-3.82,0.2l-14.04,0.14L170.48,354l-12.86,6.94
		l-8.93,10.21l-3.93,9.42l-1.29,10.46l2.08,13.35l7.72,16.9l9.08,11.52l16.12,13.36l10.37,5.28l6.92,2.33l9.18,1.8l9.2-0.3
		l7.04-1.39l7.28-2.59l2.96-3.89l0-5.33l-12.3-7.18l-7.18-7.52l9.09,1.46l8.23-0.11l2.84-1.46l0.74-2.62l-0.89-3.49l-0.98-0.95
		l-16.97-3.53l-7.65-3.92L193.91,401.61z"/>
</g>
<g>
	<path class="st3" d="M165.65,436.11l-14.31,9.15l-2.05,4.04l1.08,6.27l3.29,1.6l3.82,1.87l-6.93,7.5l-0.45,7.6l3.72,5.41l7.75,1.68
		l6.23-2.07l23.89-26.47C191.68,452.68,174.17,445.48,165.65,436.11z"/>
</g>
<g>
	<path class="st3" d="M194.08,402.31l34.4-50.1l9.07-7.38l-0.75,6.9l5.27-0.65l2.93,0.99l3.47,3.77l1.77,7.01l-1.03,5.71l-3.57,6.57
		l3.57,2.87l-2.11,5.49l4.07,0.55l4.3,2.79l1.59,4.21l-0.68,8.2l-3.55,4.21l-26.04,16.1C226.8,419.55,210.94,418.94,194.08,402.31z"
		/>
</g>
<g>
	
		<ellipse transform="matrix(0.938 -0.3467 0.3467 0.938 -94.2769 89.4066)" class="st9" cx="202.78" cy="308.23" rx="7.25" ry="5.82"/>
</g>
<g>
	<polygon class="st7" points="193.25,318.33 199.15,313.46 203.76,311.81 208.89,311.09 211.79,310.48 216.63,311.81 214.15,316.57 
		209.8,320.69 203.76,321.42 198.89,321.42 	"/>
</g>
<g>
	
		<ellipse transform="matrix(0.1845 -0.9828 0.9828 0.1845 -42.6463 542.5019)" class="st9" cx="305.59" cy="296.95" rx="5.37" ry="6.69"/>
</g>
<g>
	<polygon class="st7" points="293.55,302.08 298.76,301.21 301.27,299.73 306,299.39 310.78,300.98 314.31,302.98 315.97,305.03 
		316.63,306.51 308.85,310.78 302.47,309.78 296.32,306.51 	"/>
</g>
<g>
	<path class="st3" d="M199.56,308.61c-0.14,0-0.29-0.03-0.43-0.1c-0.5-0.24-0.71-0.83-0.48-1.33c0.68-1.44,2.93-3.83,6.61-2.56
		c0.52,0.18,0.8,0.75,0.62,1.27s-0.75,0.8-1.27,0.62c-2.91-1-4.1,1.42-4.15,1.53C200.3,308.4,199.94,308.61,199.56,308.61z"/>
</g>
<g>
	<path class="st3" d="M308.46,296.3c-0.26,0-0.51-0.1-0.71-0.3c-2.17-2.19-4.3-0.53-4.39-0.46c-0.43,0.34-1.06,0.27-1.41-0.16
		s-0.27-1.06,0.16-1.41c1.25-0.99,4.32-2.14,7.06,0.61c0.39,0.39,0.39,1.02,0,1.41C308.97,296.2,308.71,296.3,308.46,296.3z"/>
</g>
<g>
	<path class="st10" d="M762.99,504.55l-2.16,0.02c-5.14-5.39-18.77-9.18-34.77-9.07c-15.99,0.11-29.57,4.09-34.64,9.56l-2.16,0.02
		l0.03,4.74c0.05,7.76,16.6,13.94,36.96,13.8c20.36-0.14,36.81-6.55,36.76-14.31L762.99,504.55z"/>
</g>
<g>
	
		<ellipse transform="matrix(1 -6.969586e-03 6.969586e-03 1 -3.4984 5.0731)" class="st8" cx="726.13" cy="504.48" rx="36.86" ry="16.13"/>
</g>
<g>
	<path class="st3" d="M716.7,450.96l-15.12,54.17c0,0,5.84,8.67,25.02,8.67c16.24,0,22.24-7.76,22.24-7.76l-9.01-55.25L716.7,450.96
		z"/>
</g>
<g>
	<path class="st11" d="M739.83,450.8c-0.01-1.89-5.2-3.38-11.59-3.34c-6.39,0.04-11.55,1.61-11.54,3.5
		c0.01,1.89,5.18,3.8,11.57,3.75S739.84,452.69,739.83,450.8z"/>
</g>
<g>
	<path class="st6" d="M757.3,73.31c-10.77-23.42-34.34-39.66-61.68-39.66c-37.51,0-67.91,30.57-67.91,68.28s30.41,68.28,67.91,68.28
		c25.74,0,48.14-14.4,59.66-35.63"/>
</g>
<g>
	<polygon class="st8" points="653.84,128.68 650.3,128.37 646.66,131.91 646.18,138.25 656.54,158.32 669.33,164.97 682.73,168.98 
		697.09,170.8 709.74,168.73 725.38,163.94 728.18,161.87 719.76,154.89 713.78,145.03 710.6,137.33 708.74,133.68 704.89,130.87 
		700.11,130.14 687.24,133.99 676.5,133.78 665.07,132.43 659.24,130.87 	"/>
</g>
<g>
	<path class="st7" d="M676.94,25.89L664.92,41l-7.87,14.89l-4.37,10.4l-0.42,7.08l1.67,3.22l4.37,2.39l11.02,0.83h12.48l8.73-1.46
		l7.07-3.12l4.78-3.74l4.37-8.53l7.49-10.81l4.16-6.45l5.72-4.7c0,0-8.84-6.32-21.11-6.53l3.51-2.38l5.18-2.05l3.4-2.13l0.57-2.02
		l-0.87-2.54l-3.06-1.56c0,0-16.53,4.12-23.13,9.03l6.18-6.13l3.21-2.48l1.52-3.54l-1.74-2.63l-3.7-0.23
		C694.09,15.8,682.84,18.48,676.94,25.89z"/>
</g>
<g>
	<path class="st7" d="M756.21,73.42c0,0-12.6,14.66-10.9,39.31c0,0,2.59,15.25,9.4,22.91l1.51-0.25c0,0,21.7-6.62,27.7-13.41
		c0,0,14.86-15.85-1.35-34.23C782.56,87.74,764.47,72.64,756.21,73.42z"/>
</g>
<g>
	<path class="st7" d="M632.06,77.85l-11.34,9.44c0,0-10.14,17.55-0.73,31.56l2.73,3.54l4.48,3.5l5.69,3.12
		C632.89,128.99,622.08,99.74,632.06,77.85z"/>
</g>
<g>
	<path class="st6" d="M615.99,99.31c0,0-15.91,6.4-23.29,22.72c0,0-9.08,16.4-7.45,53.48l10.57,3.09c0,0-3.06-35.43,4.81-46.47
		c0,0,6.91-15.95,17.22-17.29l-1.29-15.69L615.99,99.31z"/>
</g>
<g>
	<path class="st6" d="M779.14,104.77l2.87,7.23c0,0,17.38,5.1,20.67,21.19c0,0,5.24,24.47-9.46,42.32l10.57,4.2
		c0,0,34-56.76-19.86-82.07C783.92,97.64,780.18,102.07,779.14,104.77z"/>
</g>
<g>
	<path class="st3" d="M811.74,252.22H559.37c-7.03,0-12.74-5.7-12.74-12.74v-41.05c0-7.03,5.7-12.74,12.74-12.74h252.37
		c7.03,0,12.74,5.7,12.74,12.74v41.05C824.47,246.51,818.77,252.22,811.74,252.22z"/>
</g>
<g class="st12">
	<g>
		<path class="st3" d="M656.18,116.54c-8.06,0-14.62-6.56-14.62-14.62c0-8.06,6.56-14.62,14.62-14.62c8.06,0,14.62,6.56,14.62,14.62
			C670.79,109.99,664.24,116.54,656.18,116.54z M656.18,93.43c-4.69,0-8.5,3.81-8.5,8.5s3.81,8.5,8.5,8.5s8.5-3.81,8.5-8.5
			S660.86,93.43,656.18,93.43z"/>
	</g>
</g>
<g class="st12">
	<g>
		<path class="st3" d="M710.4,117.5c-8.11,0-14.71-6.6-14.71-14.71c0-8.11,6.6-14.71,14.71-14.71s14.71,6.6,14.71,14.71
			C725.12,110.9,718.52,117.5,710.4,117.5z M710.4,94.24c-4.72,0-8.55,3.84-8.55,8.55s3.84,8.55,8.55,8.55
			c4.72,0,8.55-3.84,8.55-8.55S715.12,94.24,710.4,94.24z"/>
	</g>
</g>
<g>
	<polygon class="st7" points="571.89,177.56 569.13,186.67 570.51,193.08 577.75,196.91 585.05,197.95 588.42,197.56 589.24,194.58 
		582.74,189.25 583.09,182.65 587.06,180.46 590.71,181.18 597.86,186.1 606.89,186.24 596.9,178.61 585.24,175.51 578.71,175.38 	
		"/>
</g>
<g>
	<polygon class="st7" points="777.33,174.69 773.82,181.26 773.82,190.29 780.44,196.5 786.46,197.32 792.46,196.87 792.46,194.06 
		787.28,189.66 786,184.72 787.96,179.71 794.39,180.53 803.01,185.69 810.26,186.37 804.11,181.3 794.48,176.02 786.54,174.69 
		780.2,174.69 	"/>
</g>
<g>
	<polygon class="st13" points="789.42,179.9 786.91,182.39 786.91,185.69 802.43,185.69 796.75,181.94 790.83,179.71 	"/>
</g>
<g>
	<polygon class="st13" points="586.51,180.76 583.95,182.18 582.46,186.47 597.86,186.1 594.81,183.62 590.71,181.18 	"/>
</g>
<g>
	<path class="st8" d="M713.58,462.14c0,0,16.69,6.96,28.16,0.38l-1.91-11.72c0,0-4.04,4.62-14.99,3.37c0,0-6.65-0.1-8.14-3.21
		L713.58,462.14z"/>
</g>
<g>
	<path class="st8" d="M707.31,484.57c0,0,9.47,3.64,20.34,3.97c6.11,0.18,12.1-1.17,17.75-3.53l-1.91-11.74
		c0,0-5.12,4.57-19.03,3.51c-3.6-0.27-11.73-1.19-13.77-4.3L707.31,484.57z"/>
</g>
<g>
	<path class="st14" d="M701.15,504.67c0,0,3.67,9.13,23.63,9.13c18.56,0,22.49-4.35,24.49-7.95l-2.4-11.86c0,0-8.37,7.32-26.97,4.86
		c0,0-12.68-1.88-15.18-4.99L701.15,504.67z"/>
</g>
<g>
	<path class="st10" d="M825.16,467.84l1.46,1.59c-0.54,7.43,5.81,20.08,16.64,31.85c10.83,11.77,22.9,19.16,30.35,19.24l1.46,1.59
		l3.49-3.21c5.71-5.26-0.83-21.66-14.61-36.64c-13.78-14.98-29.58-22.87-35.3-17.61L825.16,467.84z"/>
</g>
<g>
	
		<ellipse transform="matrix(0.736 -0.677 0.677 0.736 -110.8743 706.0602)" class="st8" cx="849.87" cy="495.19" rx="16.13" ry="36.86"/>
</g>
<g>
	<path class="st3" d="M816.57,538.13l50.28-25.19c0,0,2.5-10.15-10.38-24.36c-10.91-12.03-20.69-11.26-20.69-11.26l-34.87,43.79
		L816.57,538.13z"/>
</g>
<g>
	
		<ellipse transform="matrix(0.736 -0.677 0.677 0.736 -145.0398 687.3027)" class="st11" cx="808.74" cy="529.62" rx="3.42" ry="11.56"/>
</g>
<g>
	<path class="st8" d="M826.94,532.93c0,0-6.06-17.04-18.64-21.12l-7.4,9.29c0,0,6.14-0.11,12.56,8.84c0,0,4.4,4.99,3.09,8.18
		L826.94,532.93z"/>
</g>
<g>
	<path class="st8" d="M847.82,522.68c0,0-2.53-9.44-9.59-17.72c-3.97-4.65-10.51-8.53-16.06-11.13l-7.08,9.46
		c0,0,8.07,0.41,16.45,13.31c0,0,5.94,7.91,5,11.51L847.82,522.68z"/>
</g>
<g>
	<path class="st14" d="M866.8,513.56c0,0,4.29-8.85-9.11-23.64c-12.47-13.75-18.33-13.74-22.35-12.8l-7.17,9.75
		c0,0,11.05,1.28,21.72,16.71c0,0,7.09,11.14,6.46,15.08L866.8,513.56z"/>
</g>
<g>
	<path class="st10" d="M126.6,500.79l-2.15,0.14c-5.44-5.09-19.27-8.09-35.23-7.06c-15.96,1.03-29.29,5.78-34.03,11.53l-2.15,0.14
		l0.31,4.73c0.5,7.75,17.37,12.97,37.69,11.66c20.31-1.31,36.38-8.65,35.88-16.4L126.6,500.79z"/>
</g>
<g>
	
		<ellipse transform="matrix(0.9979 -0.0643 0.0643 0.9979 -32.15 6.8157)" class="st8" cx="89.8" cy="502.83" rx="36.86" ry="16.13"/>
</g>
<g>
	<path class="st3" d="M77.32,449.94l-11.99,54.95c0,0,6.33,8.32,25.48,7.23c16.21-0.93,21.76-9.02,21.76-9.02l-12.17-54.64
		L77.32,449.94z"/>
</g>
<g>
	
		<ellipse transform="matrix(0.9979 -0.0643 0.0643 0.9979 -28.703 6.644)" class="st11" cx="88.86" cy="449.2" rx="11.56" ry="3.42"/>
</g>
<g>
	<path class="st8" d="M74.84,461.28c0,0,17.07,5.99,28.14-1.24l-2.58-11.59c0,0-3.77,4.85-14.77,4.22c0,0-6.65,0.29-8.31-2.73
		L74.84,461.28z"/>
</g>
<g>
	<path class="st8" d="M69.7,483.96c0,0,8.93,3.97,19.81,3.67c6.11-0.17,13.24-2.82,18.75-5.5l-2.91-11.45c0,0-5.38,6.02-20.69,4.44
		c0,0-9.88-0.35-12.1-3.34L69.7,483.96z"/>
</g>
<g>
	<path class="st14" d="M64.87,504.46c0,0,4.19,8.9,24.12,7.76c18.53-1.06,22.2-5.63,24-9.35l-3.07-11.7c0,0-7.93,7.79-26.65,6.4
		c0,0-13.12-1.48-15.79-4.44L64.87,504.46z"/>
</g>
<g>
	<path class="st15" d="M143.79,388.45c0,0,29.38,78.62,87.65,55.55l0.52,2.05l-3.48,5.24l-16.18,4.28h-7.36l-10.07-2.05l-14.32-6.12
		l-16.71-13.36l-8.98-10.37l-7.74-14.52C147.13,409.15,140.89,390.48,143.79,388.45z"/>
</g>
<g>
	<path class="st15" d="M205.66,372.44c0,0-20.57,4.93-11.35,29.54l10.75-17.09L205.66,372.44z"/>
</g>
<g>
	<path class="st16" d="M204.95,321.32c0,0,2.94,54.85,0.11,63.56l9.47-12.45c0,0-0.97-34.49-2.59-53.77
		C211.94,318.66,207.33,321.22,204.95,321.32z"/>
</g>
<g>
	<path class="st16" d="M226,332.34c0,0-0.42,2.88,5.96,8.69c0,0,13.65,11.22,32.4,9.02c9.96-1.17,27.24-7.31,29.19-24.4
		c0,0,0.83-5.68-0.5-6.77l-3.3,7.71l-6.02,6.69l-5.35,4.78l-10.48,5.01l-7.32,1.48l-8.86-1.37l-11.16-2.96l-8.59-4.64L226,332.34z"
		/>
</g>
<g>
	<path class="st16" d="M201.6,455.57c0,0-7.08,39.79-8.89,42.87c0,0,0.95,2.08,2.87,1.27c0,0,9.9-24.96,10.69-40.34
		c0,0,16.68,3.87,20.53-6.49C226.8,452.89,207.18,456.89,201.6,455.57z"/>
</g>
<g>
	<path class="st16" d="M250.37,360.94c0,0,6.93,3.15,4.99,9.7l-3.59,4.61l1.65,1.06l0.97,1.16c0,0,13.21,4.56,6.32,18.17
		c0,0,0.91,6.66-5.81,11.45l-23.61,13.38l-4.5-0.92l25.49-16.22l4.1-3.76l0.95-7.52l-1.98-5.52l-4.56-2.6l-3.7-0.45l2.79-6.23
		l-5.28-0.94l5.85-9.89L250.37,360.94z"/>
</g>
<g>
	<path class="st16" d="M233.45,418.14c0,0,7.1,2.16,4.14,9.34c0,0-5.14,4.78-9.46,5.01l-9.81,1.48l-6.14-6.39l9.81,1.83l7.06-0.91
		l3.19-1.71l0.62-3.08l-0.89-2.58l-1.71-1.1L233.45,418.14z"/>
</g>
<g>
	<path class="st16" d="M202.25,297.54c0,0,3.87-1.89,8.02,0.74c0,0-3.01-43.26,16.4-58.6C226.68,239.68,202.25,250.41,202.25,297.54
		z"/>
</g>
<g>
	<path class="st16" d="M303.89,310.54c2.38-0.57,24.97,110.62,0.8,187.51l5.21-0.3c0,0,13.4-73.06,12.84-99.85
		c0,0-3.62-74.59-13.52-87.1L303.89,310.54z"/>
</g>
<g>
	<path class="st16" d="M245.64,268.92c0,0,27.15-11.33,44.92-3.3l7.45,22.05l4.85-1.31l-8.8-24.97c0,0-23.46-13.03-48.42,6.79"/>
</g>
<g>
	<path class="st16" d="M226.66,267.55c0,0,16.86-21.48,39.3-20.28c7.39,0.4,23.85,3.4,27.85-1.27l-6.83-1.84l-2.33,0.33
		C284.64,244.49,244.43,233.95,226.66,267.55z"/>
</g>
<g>
	<path class="st17" d="M192.92,498.34c0,0,1.22,1.06,2.65,1.38l-2.91,9.96c-0.58,1.97-2.11,3.58-4.16,3.58l-0.33-0.22l-1.98-0.33
		C186.18,512.7,188.91,513.21,192.92,498.34z"/>
</g>
<g>
	<path class="st17" d="M155.87,518.26c0,0,0.78,1.5,7.45,1.04l18.23-0.8l-5.13,3.63h-11.33l-6.04,1.09l-3.27-1.62L155.87,518.26z"/>
</g>
<g>
	<path class="st17" d="M188.44,521.61c0,0-20.14,14.02-28.24,14.63l0.5,1.85l4.07,0.64l8.06-4.11l9.04-5.98l4.76-2.16l2.29-3.85
		L188.44,521.61z"/>
</g>
<g>
	<path class="st17" d="M177.53,540.57c0,0,1.12,2.19,4.42,1.34c0.95-0.25,2.28-0.34,3.36-2.05l12.21-16.8
		c1.45-1.99,3.29-3.67,5.41-4.92l11.82-6.98c0,0,1.2-0.28,0.68-1.82c-0.51-1.54,0.85,1.13,0.85,1.13v2.23l-8.93,5.24l-5.35,4.78
		l-8.38,10.09l-6.31,9.05l-2.79,3.08l-2.28,0.91l-2.12-1.05l-2.09-1.55L177.53,540.57z"/>
</g>
<g>
	<path class="st15" d="M322.21,378c0,0,71.71-48.32,62.33-121.46c-1.04-8.11,8.09-1.3,3.75,40.41c0,0-12.61,72.25-66.31,101.6
		L322.21,378z"/>
</g>
<g>
	<path class="st15" d="M333.22,259.09c0,0,0.4,9.05,9.03,14.58c0,0,3.27,3.24-2.31,18.69l-0.77-10.08l-4.23-7.83l-3.02-7.88
		l-0.28-5.62L333.22,259.09z"/>
</g>
<g>
	<path class="st15" d="M211.45,426.75c0,0,22.06,0.6,20.51-5.13l0.89,1.37l0.18,3.08l-1.77,1.62l-2.79,1.71l-6.24-0.58l-5.18-0.63
		l-3.65-1.02L211.45,426.75z"/>
</g>
<g>
	<polygon class="st18" points="155.56,479.93 184.59,449.54 191.68,452.68 168.43,478.61 164.3,480.31 160.47,481.22 156.35,480.65 
			"/>
</g>
<g>
	<path class="st18" d="M217.89,416.78l16.18-14.8c0,0,4.78,3.91,14.01,2.63h1.14L226,418.73L217.89,416.78z"/>
</g>
<g>
	<polygon class="st18" points="150.94,466.11 150.36,469.46 177.1,445.59 175.15,443.99 	"/>
</g>
<g>
	<polygon class="st18" points="151.34,445.26 149.29,449.3 167.84,438.3 165.65,436.11 	"/>
</g>
<g>
	<path class="st18" d="M151.93,455.96l21.42-13.26l1.27,1.29l-16.06,14.7C158.56,458.7,155.2,458.27,151.93,455.96z"/>
</g>
<g>
	<polygon class="st18" points="228.48,394.96 230.83,398.99 235.37,391.97 234.92,388.77 	"/>
</g>
<g>
	<polygon class="st18" points="243.97,398.49 239.53,403.51 242.28,404.12 246.93,398.24 	"/>
</g>
<g>
	<path class="st18" d="M242.07,396.9c0,0,6-4.27,4.52-7.69c0,0,3.24,0.96,3.01,4.67c0,0-0.67,3.01-2.21,3.48
		C247.39,397.36,244.9,398.98,242.07,396.9z"/>
</g>
<g>
	<path class="st18" d="M201.94,409.06l30.02-36.62c0,0,11.07,2.62,14.97-0.54l-2.32,4.42c0,0-7.36-0.66-10.61,1.48
		c0,0-4.69,2.61-6.11,6.34l-23.57,26.79L201.94,409.06z"/>
</g>
<g>
	<path class="st18" d="M223.49,359.49l-29.18,42.49l1.67,2.15l28.46-39.2C224.44,364.92,222.69,360.79,223.49,359.49z"/>
</g>
<g>
	<polygon class="st18" points="232.85,348.65 229.99,358.11 236.34,351.39 237.15,344.84 	"/>
</g>
<g>
	<path class="st18" d="M241.61,359.89c0,0,0.51,5-3.37,7.01c0,0,4.71,0.31,5.47-0.89C243.71,366,248.61,359.89,241.61,359.89z"/>
</g>
<g>
	<path class="st18" d="M229.13,360.4l-4.04,4.73l2.02,2.49l2.87-4.57C229.99,363.05,229.09,361.26,229.13,360.4z"/>
</g>
<g>
	<path class="st18" d="M238.96,367.62l-2.99,4.81l3.76,0.23l2.61-5.04C242.34,367.62,239.9,367.71,238.96,367.62z"/>
</g>
<g>
	<path class="st17" d="M224.44,329.78l-0.95-3.26c0,0,3.11,4.25,5.82,4.59c0,0,15.66,11.51,32.66,8.66c0,0,23.01-4.95,28.48-19.93
		c0,0,1.53,0.17,2.76-1.51c0,0-6.63,23.71-31.92,26.51C261.29,344.84,233.64,343.28,224.44,329.78z"/>
</g>
<g>
	<path class="st17" d="M229.55,316.28l4.06,1.34c0,0,3.89-7.82,8.71-10C242.32,307.62,232.38,312.29,229.55,316.28z"/>
</g>
<g>
	<path class="st17" d="M266.94,303.5c0,0,10.47,2.84,13.71,6.98l4.06-2.75C284.71,307.73,275.48,302.82,266.94,303.5z"/>
</g>
<g>
	<polygon class="st17" points="201.14,500.68 197.69,513.26 199.55,512.58 203.56,501.42 	"/>
</g>
<g>
	<path class="st16" d="M201.71,499.9c0,0,16.06-33.74,52.97-32.38c0,0,43.8,0.97,47.33,29.5l-2.28-0.17l-7.58-12.82l-8.37-5.18
		l-12.7-5.58l-9.4-1.88l-10.13-0.25l-8.55,0.87l-10.54,3.7l-6.83,3.59l-14.52,11.28l-7.12,9.74L201.71,499.9z"/>
</g>
<g>
	<polygon class="st17" points="300.29,497.32 302.01,498.06 304.81,514.32 301.04,512.06 	"/>
</g>
<g>
	<path class="st17" d="M287.04,508.94c0,0,3.45,4.09,14.97,10.36c0,0,19.12,28.2,22.55,23.31l-1.81,2.26l-3.55,0.59l-3.67-4.44
		l-13.76-18.36l-14.73-9.41l-1.02-2.1L287.04,508.94z"/>
</g>
<g>
	<path class="st17" d="M314.07,521.51l24.38,14.02c0,0,3.3,2.16,4.73,0l-1.68,2.54l-3.03,0.83l-11.6-6.77l-10.69-6.32L314.07,521.51
		z"/>
</g>
<g>
	<path class="st17" d="M320.79,518.56c0,0,20.76,2.41,22.9,0c0,0,1.55-1.41,0.72-3.04l2.25,1.41l0.2,2.37l-0.34,1.95l-3.09,1.38
		l-4.87-0.34h-12.91L320.79,518.56z"/>
</g>
<g>
	<path class="st17" d="M305.29,498.24l5.59,15.02c0,0,0.89,0.52,2.44-0.73l-3.21-13.87L305.29,498.24z"/>
</g>
<g>
	<path class="st16" d="M636.96,135.63c0,0,46.28,51.27,113.19-7.26l4.55,7.26c0,0-10.87,32.21-60.56,34.56
		C694.14,170.19,653.52,169.52,636.96,135.63z"/>
</g>
<g>
	<path class="st17" d="M655.15,156.5l-6.07-11.17c0,0,32.61,20.94,67.46,4.26c0,0,8.18,10.74,11.64,12.2
		C728.18,161.78,694.09,184.16,655.15,156.5z"/>
</g>
<g>
	<path class="st15" d="M749.89,127.57L776,115.31c0,0-0.14,5.26,7.91,6.66c0,0-17.65,12.68-29.21,13.67l-4.55-7.26L749.89,127.57z"
		/>
</g>
<g>
	<path class="st15" d="M756.21,73.42c0,0-3.48,3.49-6.32,11.45l27.18,7.25c0,0,2.19-3.22,5.49-4.38
		C782.56,87.74,765.79,74.38,756.21,73.42z"/>
</g>
<g>
	<path class="st15" d="M621.56,86.16c0,0-2.43,3.54-3.72,8.26l10.77-4.9l2.51-10.9L621.56,86.16z"/>
</g>
<g>
	<path class="st15" d="M618.46,116.21l11.46,3.08l2.96,9.7C632.89,128.99,619.57,123.49,618.46,116.21z"/>
</g>
<g>
	<path class="st15" d="M697.88,16.17c-0.35,0.79-22.32,8.34-21.5,40.08l7.79-20.43l7.08-6.65l2.11-3.22l3.49-2.89l2.22-2.01
		l0.54-1.76v-1.28L697.88,16.17z"/>
</g>
<g>
	<path class="st15" d="M695.44,49.85c0,0-10.35-18.83,19.41-24.41l0.83,0.45l-0.99,2.28l-9.61,4.48l-6.51,7.09L695.44,49.85z"/>
</g>
<g>
	<path class="st15" d="M698.23,43c0,0,8.97-1.64,18.78,4.82l7.96-7.28c0,0-11.3-6.26-21.75-5.85
		C703.22,34.69,699.27,37.65,698.23,43z"/>
</g>
<g>
	<path class="st16" d="M717.01,47.82c0,0,32,17.6,32.88,36.55l6.94-12.06c0,0-13.69-23.52-31.27-31.06l-0.6-0.7L717.01,47.82z"/>
</g>
<g>
	<path class="st16" d="M631.12,80.95c0,0,8.11-21.81,26.31-25.64l6.05-11.71C663.47,43.6,647.46,42.94,631.12,80.95z"/>
</g>
<g>
	<path class="st15" d="M655.83,60.9c0,0-4.97,12.82,3.23,14.47c0,0,27.15,2.53,33.45-1.13c0,0,11.97-6.86,17.9-17.99l-6.8,13.57
		l-5.79,6.06l-6.57,3.01l-9.44,0.92h-16.65l-8.95-1.36l-2.97-3.23l-0.87-3.45l0.96-6.71L655.83,60.9z"/>
</g>
<g>
	<path class="st17" d="M684.68,143.01c-14.05,0-28.14-4.65-28.98-4.93c-0.79-0.26-1.21-1.11-0.95-1.9c0.26-0.79,1.11-1.21,1.9-0.95
		c0.29,0.1,29.06,9.58,44.33,1.49c0.73-0.39,1.64-0.11,2.03,0.62c0.39,0.73,0.11,1.64-0.62,2.03
		C697.3,142.07,691,143.01,684.68,143.01z"/>
</g>
<g>
	<path class="st17" d="M686.54,150.63c-14.05,0-28.14-4.65-28.98-4.93c-0.79-0.26-1.21-1.11-0.95-1.9c0.26-0.79,1.12-1.21,1.9-0.95
		c0.29,0.1,29.06,9.58,44.33,1.49c0.73-0.39,1.64-0.11,2.03,0.62c0.39,0.73,0.11,1.64-0.62,2.03
		C699.16,149.7,692.85,150.63,686.54,150.63z"/>
</g>
<g>
	<path class="st15" d="M774,99.42c-0.1,0-0.19-0.01-0.29-0.03c-11.72-2.29-26.22-3.45-26.36-3.47c-0.83-0.07-1.44-0.79-1.38-1.61
		s0.8-1.45,1.61-1.38c0.15,0.01,14.81,1.19,26.7,3.51c0.81,0.16,1.34,0.95,1.18,1.76C775.33,98.92,774.7,99.42,774,99.42z"/>
</g>
<g>
	<path class="st15" d="M773.15,106.45h-27.19c-0.83,0-1.5-0.67-1.5-1.5s0.67-1.5,1.5-1.5h27.19c0.83,0,1.5,0.67,1.5,1.5
		S773.98,106.45,773.15,106.45z"/>
</g>
<g>
	<path class="st15" d="M747.67,118.17c-0.71,0-1.35-0.51-1.48-1.24c-0.14-0.82,0.4-1.59,1.22-1.74l26.78-4.68
		c0.81-0.14,1.59,0.4,1.74,1.22c0.14,0.82-0.4,1.59-1.22,1.74l-26.78,4.68C747.84,118.16,747.75,118.17,747.67,118.17z"/>
</g>
<g>
	<path class="st15" d="M617.39,100.52c-0.72,0-1.36-0.52-1.48-1.26c-0.13-0.82,0.42-1.59,1.24-1.72l9.75-1.6
		c0.81-0.14,1.59,0.42,1.72,1.24c0.13,0.82-0.42,1.59-1.24,1.72l-9.75,1.6C617.55,100.51,617.47,100.52,617.39,100.52z"/>
</g>
<g>
	<path class="st15" d="M626.94,106.81h-9.55c-0.83,0-1.5-0.67-1.5-1.5s0.67-1.5,1.5-1.5h9.55c0.83,0,1.5,0.67,1.5,1.5
		S627.77,106.81,626.94,106.81z"/>
</g>
<g>
	<path class="st15" d="M627.71,115.19c-0.07,0-0.15-0.01-0.22-0.02l-9.67-1.44c-0.82-0.12-1.38-0.89-1.26-1.7
		c0.12-0.82,0.89-1.38,1.71-1.26l9.67,1.44c0.82,0.12,1.38,0.89,1.26,1.7C629.08,114.66,628.44,115.19,627.71,115.19z"/>
</g>
<g>
	<g>
		<path class="st9" d="M586.98,207h5.76v17.27h-28.79V207h5.76v28.79h5.76v-23.03h5.76v23.03h5.76V207z"/>
	</g>
	<g>
		<path class="st9" d="M602.53,235.79V207h23.03v5.76h-17.27v5.76h11.52v5.76h-11.52v5.76h17.27v5.76H602.53z"/>
	</g>
	<g>
		<path class="st9" d="M636.32,235.79V207h5.76v23.03h11.52v5.76H636.32z"/>
	</g>
	<g>
		<path class="st9" d="M680.22,235.79v-11.52h5.76v5.76h-23.03v-17.27h23.03v5.76h-5.76V207H668.7v28.79H680.22z"/>
	</g>
	<g>
		<path class="st9" d="M713.04,230.03v5.76h-11.52v-5.76h-5.76v-17.27h5.76V207h11.52v5.76h5.76v17.27H713.04z M701.52,230.03h11.52
			v-17.24h-11.52V230.03z"/>
	</g>
	<g>
		<path class="st9" d="M728.59,235.79V207h5.76v5.76h5.76v17.27h5.76v-17.27h5.76V207h5.76v28.79h-5.76v-17.27h-17.27v17.27H728.59z
			"/>
	</g>
	<g>
		<path class="st9" d="M767.16,235.79V207h23.03v5.76h-17.27v5.76h11.52v5.76h-11.52v5.76h17.27v5.76H767.16z"/>
	</g>
	<g>
		<path class="st9" d="M799.99,207h5.76v17.27h-5.76V207z M799.99,230.03h5.76v5.76h-5.76V230.03z"/>
	</g>
</g>
<g>
	<path class="st19" d="M160.78,482.22c-4.09,0-7.21-1.09-9.27-3.26c-2.9-3.05-3.03-7.42-2.62-10.54c0.21-1.65,1.04-3.17,2.32-4.29
		l22.62-19.63c0.42-0.36,1.05-0.32,1.41,0.1c0.36,0.42,0.32,1.05-0.1,1.41l-22.62,19.63c-0.91,0.79-1.5,1.87-1.65,3.03
		c-0.28,2.21-0.39,6.3,2.09,8.91c1.94,2.05,5.18,2.91,9.63,2.57c2.21-0.17,4.25-1.2,5.77-2.89l22.69-25.37
		c0.37-0.41,1-0.45,1.41-0.08c0.41,0.37,0.45,1,0.08,1.41l-22.69,25.37c-1.86,2.08-4.39,3.34-7.11,3.55
		C162.07,482.19,161.41,482.22,160.78,482.22z"/>
</g>
<g>
	<path class="st19" d="M159,459.7c-0.01,0-0.03,0-0.04,0c-3.6-0.13-10.46-2.34-10.67-9.71c-0.07-2.48,1.22-4.86,3.36-6.22
		l13.47-8.51c0.47-0.29,1.08-0.15,1.38,0.31c0.29,0.47,0.16,1.08-0.31,1.38l-13.47,8.51c-1.55,0.98-2.48,2.69-2.43,4.47
		c0.21,7.36,8.4,7.75,8.75,7.77c0.55,0.02,0.98,0.48,0.96,1.04C159.98,459.27,159.53,459.7,159,459.7z"/>
</g>
<g>
	<path class="st9" d="M204.95,386.79c-0.04,0-0.08,0-0.13-0.01c-0.55-0.07-0.94-0.57-0.87-1.12c3.14-25.12,0.03-63.88,0-64.27
		c-0.04-0.55,0.37-1.03,0.92-1.08c0.54-0.05,1.03,0.36,1.08,0.92c0.03,0.39,3.16,39.35,0,64.68
		C205.88,386.42,205.45,386.79,204.95,386.79z"/>
</g>
<g>
	<path class="st9" d="M202.55,322.47c-2.24,0-4.43-0.45-6.41-1.35c-3.43-1.56-5.85-4.25-6.81-7.6c-1.96-6.84,2.92-14.26,10.88-16.54
		c3.83-1.1,7.79-0.85,11.17,0.67c3.43,1.56,5.85,4.25,6.81,7.6l0,0c0.96,3.34,0.33,6.91-1.76,10.05c-2.06,3.09-5.3,5.39-9.12,6.49
		C205.73,322.24,204.13,322.47,202.55,322.47z M204.97,298.3c-1.39,0-2.81,0.2-4.21,0.6c-6.9,1.98-11.16,8.28-9.51,14.06
		c0.79,2.77,2.82,5.02,5.71,6.33c2.95,1.33,6.43,1.54,9.8,0.57c3.37-0.96,6.21-2.98,8.01-5.67c1.76-2.64,2.29-5.62,1.5-8.39l0,0
		c-0.79-2.77-2.82-5.02-5.71-6.33C208.83,298.7,206.93,298.3,204.97,298.3z"/>
</g>
<g>
	<path class="st9" d="M307.02,311.63c-1.92,0-3.87-0.34-5.76-1.01c-3.75-1.34-6.83-3.84-8.69-7.05c-1.89-3.27-2.28-6.87-1.11-10.14
		c1.17-3.28,3.75-5.81,7.28-7.15c3.47-1.31,7.45-1.3,11.19,0.04c3.75,1.34,6.83,3.84,8.69,7.06c1.89,3.27,2.28,6.87,1.11,10.14l0,0
		c-1.17,3.28-3.75,5.81-7.28,7.15C310.73,311.3,308.89,311.63,307.02,311.63z M304.17,287.29c-1.64,0-3.24,0.28-4.73,0.85
		c-2.97,1.12-5.14,3.24-6.11,5.95c-0.97,2.71-0.63,5.72,0.96,8.47c1.62,2.8,4.33,4.99,7.63,6.17c3.3,1.18,6.79,1.2,9.81,0.05
		c2.97-1.12,5.14-3.24,6.11-5.95l0,0c0.97-2.71,0.63-5.72-0.96-8.47c-1.62-2.8-4.33-4.99-7.63-6.17
		C307.58,287.59,305.86,287.29,304.17,287.29z"/>
</g>
<g>
	<path class="st9" d="M309.9,498.76c-0.07,0-0.15-0.01-0.22-0.02c-0.54-0.12-0.88-0.66-0.76-1.19
		c27.29-121.75-0.47-186.01-0.76-186.65c-0.23-0.5,0-1.1,0.5-1.32c0.51-0.23,1.1,0,1.32,0.51c0.07,0.16,7.23,16.45,10.87,47.62
		c3.35,28.71,4.34,76.36-9.99,140.28C310.77,498.44,310.35,498.76,309.9,498.76z"/>
</g>
<g>
	<path class="st9" d="M192.92,498.76c-0.09,0-0.19-0.01-0.28-0.04c-0.53-0.16-0.83-0.71-0.68-1.24c0.06-0.21,6.32-21.55,8.18-41.6
		c0.05-0.55,0.54-0.96,1.09-0.9c0.55,0.05,0.95,0.54,0.9,1.09c-1.89,20.25-8.2,41.77-8.26,41.98
		C193.75,498.48,193.35,498.76,192.92,498.76z"/>
</g>
<g>
	<path class="st19" d="M245.44,405.61c-2.32,0-4.94-0.34-7.85-1.02c-0.04-0.01-0.09-0.02-0.13-0.04
		c-0.33-0.13-8.18-3.24-10.82-10.01c-1.37-3.53-1.07-7.37,0.91-11.42c0.37-1.23,3.96-11.04,22.35-6.73c0.3,0.07,0.56,0.28,0.68,0.57
		c0.13,0.29,0.11,0.61-0.04,0.89l-2.55,4.67c2.34,0.14,4.66,0.67,6.51,1.93c2.21,1.5,3.44,3.79,3.68,6.82
		c0.12,0.71,1.05,7.1-3.23,11.17C252.73,404.55,249.54,405.61,245.44,405.61z M238.12,402.66c7.29,1.7,12.49,1.14,15.44-1.67
		c3.65-3.46,2.65-9.37,2.64-9.43c-0.01-0.03-0.01-0.07-0.01-0.1c-0.18-2.45-1.1-4.2-2.81-5.36c-4.75-3.22-13.89-0.73-15.3-0.32
		c-1.49,1.27-2.25,2.58-2.26,3.9c-0.01,1.96,1.61,3.75,2.98,4.91l1.01-4.24c0.06-0.24,0.2-0.44,0.39-0.58
		c0.16-0.12,4.04-2.86,7.22-2.07c1.27,0.31,2.28,1.16,2.92,2.43c0.03,0.07,0.06,0.13,0.08,0.21c0.05,0.19,1.14,4.69-1.43,7.12
		c-1.73,1.64-4.59,1.87-8.49,0.68c-0.06-0.02-0.13-0.04-0.18-0.08c-0.05-0.03-1.36-0.74-2.78-1.94c-2.44-2.06-3.72-4.29-3.71-6.46
		c0.01-1.98,1.07-3.85,3.14-5.55c0.1-0.08,0.21-0.14,0.33-0.18c0.27-0.09,4.24-1.31,8.65-1.44c-0.02-0.2,0.01-0.4,0.12-0.59
		l2.1-3.84c-16.04-3.3-18.6,5.31-18.71,5.69c-0.02,0.06-0.04,0.13-0.07,0.18c-1.75,3.55-2.05,6.88-0.87,9.89
		C230.71,399.48,237.42,402.37,238.12,402.66z M241.18,396.26c3.06,0.92,5.28,0.83,6.42-0.25c1.56-1.47,1.02-4.49,0.9-5.09
		c-0.38-0.7-0.88-1.12-1.55-1.28c-1.71-0.43-4.15,0.83-5.27,1.55l-1.05,4.41c-0.02,0.09-0.06,0.18-0.1,0.26
		C240.82,396.05,241.06,396.19,241.18,396.26z"/>
</g>
<g>
	<path class="st19" d="M228.12,396.36c-0.24,0-0.48-0.08-0.67-0.26c-0.41-0.37-0.44-1-0.07-1.41l9.48-10.48
		c0.37-0.41,1-0.44,1.41-0.07c0.41,0.37,0.44,1,0.07,1.41l-9.48,10.48C228.66,396.25,228.39,396.36,228.12,396.36z"/>
</g>
<g>
	<path class="st19" d="M242.07,405.39c-0.22,0-0.44-0.07-0.62-0.22c-0.43-0.34-0.51-0.97-0.16-1.41l7.15-9.02
		c0.34-0.43,0.97-0.51,1.41-0.16s0.51,0.97,0.16,1.41l-7.15,9.02C242.65,405.26,242.36,405.39,242.07,405.39z"/>
</g>
<g>
	<path class="st19" d="M203.76,412.24c-0.24,0-0.47-0.08-0.67-0.25c-0.41-0.37-0.45-1-0.08-1.41l24.72-27.75
		c0.37-0.41,1-0.45,1.41-0.08c0.41,0.37,0.45,1,0.08,1.41l-24.72,27.75C204.31,412.12,204.04,412.24,203.76,412.24z"/>
</g>
<g>
	<path class="st9" d="M203.55,501.34c-0.18,0-0.36-0.05-0.52-0.15c-0.47-0.29-0.62-0.9-0.33-1.37c0.19-0.31,18.65-30.09,51.63-30.09
		c0.73,0,1.46,0.01,2.21,0.04c0.32,0,35.65,0.53,43.97,26.67c0.17,0.53-0.12,1.09-0.65,1.26c-0.53,0.17-1.09-0.12-1.26-0.65
		c-7.89-24.77-41.77-25.27-42.11-25.28c-33.21-1.3-51.9,28.78-52.09,29.08C204.22,501.17,203.89,501.34,203.55,501.34z"/>
</g>
<g>
	<path class="st19" d="M238.94,374.34c-4.34,0-8.66-1.72-11.91-4.89c-2.83-2.75-4.06-5.83-3.67-9.18
		c1.03-8.86,13.21-16.27,13.73-16.58c0.34-0.2,0.76-0.19,1.08,0.04c0.32,0.22,0.49,0.62,0.41,1l-1.08,5.86
		c3.23-0.99,6.04-0.71,8.37,0.83c5.1,3.38,5.9,11.6,5.93,11.94c0,0.05,0,0.11,0,0.16c-0.39,5.26-3.37,8.8-8.61,10.24
		C241.8,374.16,240.37,374.34,238.94,374.34z M236.19,346.7c-3.4,2.41-10.16,7.9-10.85,13.81c-0.32,2.73,0.69,5.19,3.08,7.51
		c3.82,3.71,9.28,5.18,14.24,3.83c4.39-1.2,6.79-4.01,7.14-8.37c-0.09-0.81-0.97-7.69-5.04-10.38c-1.83-1.21-4.12-1.4-6.79-0.55
		c-2.04,1.05-7.13,4.36-7.3,7.69c-0.08,1.58,0.98,3.12,3.16,4.56l0.66-1.91c1.17-3.38,4.72-5.38,8.08-4.55
		c0.32,0.08,0.61,0.17,0.85,0.29c1.36,0.62,2.23,1.48,2.6,2.54c0.57,1.63-0.22,3.19-0.64,4.03c-0.05,0.1-0.1,0.2-0.14,0.28
		c-2.48,5.38-11.81,1.36-12.2,1.18c-0.05-0.02-0.1-0.05-0.14-0.07c-2.93-1.89-4.36-4.06-4.23-6.45c0.2-3.74,4.3-6.87,6.72-8.4
		c-0.06-0.16-0.08-0.34-0.04-0.52L236.19,346.7z M235.71,365.5c2.45,0.76,6.59,1.61,7.72-0.85c0.04-0.1,0.1-0.21,0.17-0.34
		c0.33-0.66,0.83-1.65,0.54-2.47c-0.19-0.53-0.71-0.99-1.55-1.38c-0.09-0.04-0.25-0.1-0.5-0.16c-2.37-0.59-4.88,0.85-5.71,3.26
		l-0.67,1.93C235.72,365.48,235.71,365.49,235.71,365.5z"/>
</g>
<g>
	<path class="st19" d="M226.8,419.72c-0.34,0-0.67-0.17-0.85-0.48c-0.29-0.47-0.14-1.09,0.33-1.38l26.04-15.91
		c0.47-0.29,1.09-0.14,1.38,0.33c0.29,0.47,0.14,1.09-0.33,1.38l-26.04,15.91C227.15,419.68,226.97,419.72,226.8,419.72z"/>
</g>
<g>
	<path class="st19" d="M245,377.31c-0.16,0-0.33-0.04-0.48-0.12c-0.49-0.26-0.67-0.87-0.4-1.36l4.22-7.75
		c0.26-0.49,0.87-0.66,1.36-0.4c0.49,0.26,0.67,0.87,0.4,1.36l-4.22,7.75C245.69,377.12,245.35,377.31,245,377.31z"/>
</g>
<g>
	<path class="st19" d="M194.87,402.17c-0.19,0-0.39-0.06-0.56-0.17c-0.46-0.31-0.57-0.93-0.26-1.39l31.12-45.5
		c0.31-0.46,0.93-0.57,1.39-0.26c0.46,0.31,0.57,0.93,0.26,1.39l-31.12,45.5C195.51,402.02,195.19,402.17,194.87,402.17z"/>
</g>
<g>
	<path class="st9" d="M209.05,456.52c-22.54,0-40.04-16.02-40.26-16.22c-31.72-27.16-25.88-56.24-25.81-56.53
		c8.29-41.9,62.87-33.96,63.42-33.88c0.55,0.08,0.92,0.59,0.84,1.14c-0.08,0.55-0.59,0.92-1.14,0.84
		c-0.53-0.08-53.23-7.73-61.15,32.31c-0.06,0.29-5.62,28.27,25.19,54.64c0.3,0.28,27.03,24.71,56.37,12.14
		c0.18-0.11,6.29-3.53,4.2-8.14c-2.29-1.2-16.2-8.67-19.92-14.8c-0.21-0.34-0.19-0.77,0.04-1.09c0.23-0.32,0.63-0.48,1.02-0.41
		c7.19,1.46,17.98,2.48,19.46,0.21c0.06-0.09,0.13-0.17,0.21-0.23c0,0,0.96-0.82,0.96-2.05c0.01-1.04-0.63-2.14-1.89-3.27
		c-3.88-0.45-36.97-4.96-40.33-26.91c-0.06-0.45-1.26-10.54,4.36-14.94c0.44-0.34,1.06-0.26,1.4,0.17c0.34,0.44,0.26,1.06-0.17,1.4
		c-4.74,3.71-3.63,12.99-3.61,13.08c3.26,21.29,38.52,25.2,38.87,25.23c0.2,0.02,0.39,0.1,0.55,0.24c1.89,1.62,2.84,3.32,2.81,5.04
		c-0.03,1.85-1.19,3.08-1.58,3.45c-2.45,3.35-13.4,1.96-18.86,1.02c5.27,5.7,17.75,12.16,17.89,12.23c0.18,0.09,0.33,0.25,0.43,0.43
		c2.7,5.19-2.07,9.55-4.97,11.14C221.06,455.44,214.89,456.52,209.05,456.52z"/>
</g>
<g>
	<path class="st9" d="M201.94,298.59c-0.52,0-0.96-0.4-1-0.92c-0.03-0.35-2.46-34.9,19.8-54.88c14.77-13.26,36.82-17.24,65.52-11.84
		c1.96,0.37,3.66,1.49,4.76,3.16c1.11,1.67,1.48,3.66,1.06,5.61c-0.82,3.79-4.46,6.29-8.29,5.69c-26.84-4.22-45.78,3.39-56.26,22.62
		c-0.26,0.48-0.87,0.66-1.36,0.4c-0.49-0.26-0.66-0.87-0.4-1.36c10.94-20.05,30.56-28,58.33-23.64c2.78,0.44,5.43-1.38,6.03-4.14
		c0.31-1.42,0.04-2.87-0.77-4.08c-0.8-1.21-2.03-2.03-3.46-2.3c-28.06-5.28-49.54-1.46-63.82,11.36
		c-21.54,19.33-19.17,52.9-19.15,53.24c0.04,0.55-0.37,1.03-0.92,1.08C202,298.59,201.97,298.59,201.94,298.59z"/>
</g>
<g>
	<path class="st19" d="M226,364.78c-0.21,0-0.42-0.07-0.6-0.2c-0.44-0.33-0.53-0.96-0.2-1.4l4.26-5.67c0.33-0.44,0.96-0.53,1.4-0.2
		c0.44,0.33,0.53,0.96,0.2,1.4l-4.26,5.67C226.6,364.64,226.3,364.78,226,364.78z"/>
</g>
<g>
	<path class="st19" d="M240.07,373.44c-0.17,0-0.34-0.04-0.5-0.13c-0.48-0.27-0.65-0.89-0.37-1.36l4.54-7.92
		c0.27-0.48,0.89-0.64,1.36-0.37c0.48,0.27,0.65,0.89,0.37,1.36l-4.54,7.92C240.75,373.25,240.42,373.44,240.07,373.44z"/>
</g>
<g>
	<path class="st9" d="M302.87,286.95c-0.41,0-0.79-0.25-0.94-0.65l-9.07-24.56c-0.19-0.52,0.07-1.09,0.59-1.28
		c0.52-0.19,1.09,0.07,1.29,0.59l9.07,24.56c0.19,0.52-0.07,1.09-0.59,1.28C303.1,286.93,302.98,286.95,302.87,286.95z"/>
</g>
<g>
	<path class="st9" d="M322.73,398.91c-0.33,0-0.66-0.17-0.85-0.47c-0.29-0.47-0.16-1.08,0.31-1.38c36-22.7,51.97-54.62,59.02-77.41
		c7.65-24.69,6.77-44.23,6.76-44.42c-0.56-36.51-21.06-46.94-27.33-49.27c-1.37-0.51-2.92-0.36-4.13,0.39
		c-5.58,3.47-4.04,9.68-3.85,10.36c7.58,15.62-0.54,32.23-0.9,32.93c-0.15,0.31-0.46,0.52-0.8,0.55c-0.35,0.03-0.68-0.12-0.89-0.39
		c-7.08-9.32-11.53-11.12-14.01-10.97c-1.93,0.11-2.78,1.46-2.79,1.47c-0.06,0.1-0.13,0.18-0.22,0.26c-2.5,2.1,1.82,12.4,5.69,19.05
		c0.03,0.05,0.05,0.1,0.08,0.16c8.84,24.25-20.28,51.54-21.52,52.7c-0.41,0.37-1.04,0.35-1.41-0.06c-0.38-0.41-0.35-1.04,0.06-1.41
		c0.29-0.27,29.32-27.48,21.03-50.46c-1.78-3.06-9.7-17.37-5.32-21.41c0.36-0.52,1.71-2.15,4.29-2.3
		c4.06-0.23,9.01,3.27,14.68,10.42c1.77-4.38,6.13-17.6,0.2-29.74c-0.02-0.04-0.04-0.09-0.06-0.14c-0.03-0.08-2.5-8.25,4.68-12.72
		c1.74-1.08,3.94-1.29,5.89-0.57c6.57,2.44,28.05,13.34,28.63,51.08c0.01,0.16,0.9,20.05-6.85,45.08
		c-7.16,23.11-23.35,55.49-59.87,78.51C323.1,398.86,322.92,398.91,322.73,398.91z"/>
</g>
<g>
	<path class="st20" d="M181.79,546.47c-0.53,0-1.07-0.08-1.61-0.25c-1.52-0.48-2.73-1.6-3.32-3.08c-0.59-1.48-0.49-3.13,0.29-4.52
		l11.43-17.26c0.3-0.46,0.92-0.59,1.39-0.28c0.46,0.31,0.59,0.93,0.28,1.39l-11.39,17.2c-0.44,0.8-0.51,1.82-0.14,2.74
		s1.12,1.62,2.06,1.91c1.4,0.44,2.88-0.08,3.7-1.29l16.27-21.11c0.07-0.09,0.15-0.16,0.24-0.22l14.09-9.42
		c0.55-0.37,0.82-1.02,0.68-1.67c-0.09-0.45-0.36-0.83-0.75-1.06c-0.39-0.24-0.85-0.29-1.29-0.16l-13.88,4.16
		c-0.36,0.11-0.74,0.01-1-0.26c-0.26-0.27-0.35-0.66-0.23-1.01l3.57-10.9c-4.27,0.03-7.21-0.48-8.85-1.54l-4.05,12.97
		c-0.12,0.39-0.46,0.66-0.86,0.7l-29.37,2.73c-1.4,0.13-2.46,1.29-2.46,2.69c0,0.74,0.29,1.43,0.82,1.94s1.23,0.79,1.96,0.76
		l17.03-0.49c0.55-0.01,1.01,0.42,1.03,0.97c0.02,0.55-0.42,1.01-0.97,1.03l-17.03,0.49c-1.27,0.02-2.49-0.44-3.41-1.33
		s-1.43-2.09-1.43-3.37c0-2.44,1.84-4.46,4.27-4.68l28.71-2.67l4.41-14.11c0.15-0.48,0.64-0.78,1.13-0.69
		c0.45,0.08,0.79,0.46,0.82,0.91c0.09,0.17,1.21,1.94,9.61,1.66c0.33-0.03,0.64,0.14,0.83,0.4c0.2,0.26,0.25,0.6,0.15,0.91
		l-3.41,10.42l12.05-3.61c0.97-0.29,2.02-0.16,2.89,0.36c0.87,0.52,1.48,1.39,1.68,2.38c0.29,1.45-0.31,2.91-1.53,3.73l-13.95,9.33
		L186.1,544.2C185.12,545.64,183.5,546.47,181.79,546.47z M193.92,497.8C193.92,497.8,193.92,497.81,193.92,497.8
		C193.92,497.81,193.92,497.8,193.92,497.8z M193.92,497.8C193.92,497.8,193.92,497.8,193.92,497.8
		C193.92,497.8,193.92,497.8,193.92,497.8z"/>
</g>
<g>
	<path class="st20" d="M163.21,540.1c-0.42,0-0.85-0.06-1.27-0.18c-1.22-0.35-2.21-1.16-2.79-2.28c-1.09-2.1-0.37-4.73,1.65-5.97
		l20.43-13.21c0.46-0.3,1.08-0.17,1.38,0.3c0.3,0.46,0.17,1.08-0.3,1.38l-20.45,13.22c-1.15,0.71-1.55,2.18-0.94,3.36
		c0.33,0.63,0.88,1.09,1.57,1.28c0.68,0.19,1.39,0.11,2.01-0.26l21.64-12.78c0.48-0.28,1.09-0.12,1.37,0.35
		c0.28,0.48,0.12,1.09-0.35,1.37l-21.64,12.78C164.8,539.89,164.01,540.1,163.21,540.1z"/>
</g>
<g>
	<path class="st20" d="M321.03,546.47c-1.71,0-3.34-0.84-4.35-2.32l-16.1-20.88l-13.95-9.33c-1.23-0.82-1.83-2.28-1.53-3.73
		c0.2-0.99,0.82-1.86,1.68-2.38c0.87-0.52,1.92-0.65,2.89-0.36l11.05,3.28l-2.25-13.55c-0.05-0.3,0.04-0.6,0.23-0.82
		s0.48-0.37,0.79-0.34c1.03,0.04,1.58,0.22,2.16,0.42c0.63,0.22,1.34,0.46,3.13,0.6c3.44,0.27,4.73-0.22,4.75-0.23
		c0.27-0.11,0.58-0.09,0.84,0.04c0.26,0.13,0.45,0.37,0.52,0.65l3.23,13.69l29.88,3.02c2.43,0.23,4.26,2.24,4.26,4.68
		c0,1.28-0.51,2.48-1.43,3.37c-0.92,0.89-2.16,1.36-3.41,1.33l-17.03-0.49c-0.55-0.02-0.99-0.48-0.97-1.03
		c0.02-0.55,0.5-0.99,1.03-0.97l17.03,0.49c0.77,0.03,1.43-0.25,1.96-0.76s0.82-1.2,0.82-1.94c0-1.41-1.06-2.56-2.46-2.69l-30.6-3.1
		c-0.42-0.04-0.77-0.35-0.87-0.77l-3.16-13.4c-0.89,0.15-2.35,0.26-4.54,0.09c-2.04-0.16-2.92-0.46-3.63-0.71
		c-0.11-0.04-0.22-0.08-0.32-0.11l2.29,13.76c0.06,0.34-0.07,0.69-0.32,0.91c-0.26,0.23-0.62,0.31-0.95,0.21l-12.58-3.74
		c-0.44-0.13-0.9-0.07-1.29,0.16c-0.39,0.24-0.66,0.61-0.75,1.06c-0.13,0.64,0.14,1.3,0.68,1.66l14.09,9.42
		c0.09,0.06,0.17,0.13,0.24,0.22l16.23,21.06c0.85,1.26,2.34,1.78,3.73,1.34c0.94-0.3,1.7-0.99,2.06-1.91s0.3-1.94-0.18-2.81
		l-11.35-17.13c-0.3-0.46-0.18-1.08,0.28-1.39c0.46-0.31,1.08-0.18,1.39,0.28l11.39,17.2c0.82,1.46,0.92,3.11,0.33,4.59
		c-0.59,1.48-1.8,2.6-3.32,3.08C322.1,546.39,321.56,546.47,321.03,546.47z"/>
</g>
<g>
	<path class="st20" d="M339.61,540.1c-0.8,0-1.59-0.21-2.31-0.64l-21.64-12.78c-0.48-0.28-0.63-0.89-0.35-1.37
		c0.28-0.47,0.89-0.63,1.37-0.35l21.64,12.78c0.61,0.36,1.32,0.45,2.01,0.26c0.68-0.2,1.24-0.65,1.57-1.28
		c0.61-1.18,0.21-2.65-0.93-3.35l-20.47-13.23c-0.46-0.3-0.6-0.92-0.3-1.38c0.3-0.46,0.92-0.6,1.38-0.3l20.45,13.22
		c2,1.23,2.72,3.86,1.63,5.96c-0.58,1.12-1.57,1.93-2.79,2.28C340.46,540.04,340.03,540.1,339.61,540.1z"/>
</g>
<g>
	<path class="st20" d="M258.48,337.47c-12.83,0-23.39-4.99-27.61-7.31c-1.31-0.72-2.04-2.15-1.85-3.64l0.23-1.85v0
		c0.15-1.18,0.86-2.21,1.91-2.78c1.04-0.56,2.24-0.58,3.29-0.06c9.25,4.58,24.59,5.03,24.75,5.03c14.28-0.85,20.46-6.5,22.88-9.8
		c0.61-0.83,1.54-1.37,2.55-1.48c1.01-0.11,2.03,0.21,2.79,0.88c1.44,1.26,1.65,3.43,0.5,4.94c-10.34,13.53-24.58,15.78-25.18,15.87
		C261.3,337.42,259.87,337.47,258.48,337.47z M231.24,324.93l-0.23,1.85c-0.09,0.67,0.24,1.32,0.83,1.64
		c4.52,2.49,16.56,8.14,30.68,6.89c0.08-0.01,13.99-2.24,23.83-15.1c0.52-0.68,0.42-1.66-0.23-2.23c-0.35-0.31-0.79-0.45-1.26-0.4
		c-0.47,0.05-0.88,0.29-1.16,0.67c-2.62,3.58-9.28,9.71-24.46,10.61c-0.73-0.02-16.03-0.46-25.67-5.24c-0.47-0.23-1-0.22-1.46,0.03
		C231.62,323.92,231.3,324.38,231.24,324.93L231.24,324.93z"/>
</g>
<g>
	<path class="st20" d="M260.43,345.67c-0.33,0-0.66-0.01-0.99-0.02c-18.57-0.82-32-11.72-33.22-12.75
		c-5.35-3.13-3.56-9.9-2.88-11.91c0.71-2.11,1.93-3.6,3.63-4.43c2.89-1.42,6.08-0.34,6.21-0.3c0.52,0.18,0.8,0.75,0.62,1.27
		c-0.18,0.52-0.75,0.8-1.27,0.62c-0.05-0.02-2.57-0.84-4.69,0.21c-1.19,0.59-2.07,1.69-2.6,3.27c-0.72,2.12-1.95,7.29,2.06,9.58
		c0.05,0.03,0.11,0.07,0.15,0.11c0.13,0.12,13.72,11.52,32.08,12.33c3.47,0.16,6.95-0.57,10.1-2.1c6.04-2.93,16.71-9.11,20.32-17.56
		l0.19-0.43c2.86-6.31,2.7-8.99,2.06-10.12c-1.45-2.58-4.12-5.66-10.54-2.75c-0.5,0.23-1.1,0.01-1.32-0.5
		c-0.23-0.5-0.01-1.1,0.5-1.32c5.86-2.66,10.27-1.45,13.11,3.59c1.89,3.36-1.03,9.8-1.99,11.92l-0.18,0.39
		c-3.86,9.05-14.99,15.52-21.28,18.58C267.35,344.88,263.89,345.67,260.43,345.67z"/>
</g>
<g>
	<path class="st20" d="M229.3,317.57c-0.22,0-0.43-0.07-0.62-0.21c-0.43-0.34-0.51-0.97-0.17-1.4c0.19-0.24,19.7-24.29,57.47-8.64
		c0.51,0.21,0.75,0.8,0.54,1.31c-0.21,0.51-0.8,0.75-1.31,0.54c-36.38-15.08-54.95,7.79-55.13,8.03
		C229.89,317.44,229.6,317.57,229.3,317.57z"/>
</g>
<g>
	<path class="st9" d="M193.59,319.33c-0.2,0-0.4-0.06-0.58-0.18c-0.45-0.32-0.56-0.94-0.24-1.39c0.09-0.12,8.98-12.34,24.68-6.72
		c0.52,0.19,0.79,0.76,0.6,1.28c-0.19,0.52-0.76,0.79-1.28,0.6c-14.29-5.12-22.3,5.88-22.37,5.99
		C194.21,319.18,193.91,319.33,193.59,319.33z"/>
</g>
<g>
	<path class="st9" d="M317.17,306.77c-0.32,0-0.63-0.15-0.83-0.44c-7.64-11.15-22.2-3.45-22.81-3.12c-0.48,0.26-1.09,0.08-1.36-0.4
		c-0.26-0.48-0.08-1.09,0.4-1.35c0.17-0.09,16.75-8.91,25.42,3.74c0.31,0.46,0.2,1.08-0.26,1.39
		C317.56,306.71,317.36,306.77,317.17,306.77z"/>
</g>
<g>
	<path class="st9" d="M245.64,269.92c-0.27,0-0.54-0.11-0.74-0.33c-0.37-0.41-0.34-1.04,0.06-1.41
		c13.97-12.78,31.46-15.52,49.24-7.71c1.75,0.77,3.73,0.73,5.44-0.11c1.69-0.83,2.92-2.35,3.38-4.18c0.86-3.43-1.23-6.91-4.66-7.77
		c-0.98-0.25-2.37-0.68-3.98-1.18c-2.65-0.82-5.65-1.76-7.58-2.08c-0.54-0.09-0.91-0.61-0.82-1.15c0.09-0.54,0.62-0.91,1.15-0.82
		c2.06,0.35,5.13,1.3,7.84,2.15c1.51,0.47,2.94,0.92,3.88,1.15c4.5,1.13,7.24,5.7,6.11,10.2c-0.6,2.4-2.22,4.4-4.44,5.49
		c-2.24,1.1-4.84,1.15-7.13,0.14c-17.01-7.47-33.73-4.86-47.08,7.35C246.12,269.83,245.88,269.92,245.64,269.92z"/>
</g>
<g>
	<path class="st9" d="M676.2,81.13c-9.94,0-18.79-1.11-18.92-1.13c-0.08-0.01-0.15-0.03-0.22-0.05c-2.55-0.95-4.29-2.62-5.16-4.97
		c-2.28-6.16,2.31-14.91,2.81-15.82c0.91-2.41,15.61-40.11,40.41-44.58c1.79-0.32,3.61,0.47,4.65,2.02c1.42,2.13,0.9,4.96-1.19,6.44
		c-5.17,3.66-17.55,14.21-20.71,33.15c-0.09,0.54-0.61,0.91-1.15,0.82c-0.54-0.09-0.91-0.61-0.82-1.15
		c3.29-19.68,16.15-30.65,21.53-34.45c1.2-0.85,1.5-2.47,0.69-3.69c-0.59-0.89-1.63-1.35-2.63-1.16
		c-23.96,4.32-38.77,43-38.92,43.39c-0.02,0.05-0.04,0.09-0.06,0.13c-0.05,0.09-4.76,8.72-2.72,14.23c0.65,1.77,1.92,2.99,3.87,3.75
		c1.58,0.19,18.81,2.21,31.57,0.25c6.27-0.96,11.73-5.03,14.59-10.89c1.09-2.23,10.38-20.86,19.09-26.79
		c-3.29-1.6-11.38-5-20.12-4.91c0,0-0.01,0-0.01,0c-0.55,0-0.99-0.44-1-0.99c-0.01-0.55,0.44-1.01,0.99-1.01
		c11.99-0.11,22.28,5.74,22.71,5.99c0.32,0.18,0.51,0.53,0.5,0.9c-0.01,0.37-0.23,0.7-0.56,0.86c-6.94,3.41-15.71,18.47-19.8,26.83
		c-3.15,6.45-9.17,10.93-16.09,11.99C685.32,80.9,680.65,81.13,676.2,81.13z"/>
</g>
<g>
	<path class="st9" d="M696.15,50.85c-0.53,0-0.97-0.41-1-0.94c-0.01-0.17-0.72-16.63,17.14-21.05c0.86-0.21,1.57-0.75,2-1.5
		c0.41-0.73,0.51-1.58,0.26-2.38c-0.47-1.54-2-2.44-3.56-2.11c-5.45,1.15-15.67,3.99-22.88,10.13c-0.42,0.36-1.05,0.31-1.41-0.11
		c-0.36-0.42-0.31-1.05,0.11-1.41c7.55-6.43,18.13-9.38,23.77-10.56c2.58-0.54,5.11,0.95,5.88,3.47c0.41,1.34,0.26,2.75-0.43,3.96
		c-0.69,1.22-1.88,2.12-3.26,2.46c-16.27,4.04-15.63,18.85-15.62,19c0.03,0.55-0.39,1.02-0.94,1.05
		C696.19,50.85,696.17,50.85,696.15,50.85z"/>
</g>
<g>
	<path class="st9" d="M756.83,73.68c-0.37,0-0.73-0.21-0.9-0.56c-6.58-13.58-17.7-24.67-31.29-31.21c-0.5-0.24-0.71-0.84-0.47-1.33
		c0.24-0.5,0.84-0.71,1.33-0.47c14,6.74,25.44,18.15,32.22,32.14c0.24,0.5,0.03,1.1-0.46,1.34
		C757.13,73.64,756.98,73.68,756.83,73.68z"/>
</g>
<g>
	<path class="st9" d="M695.65,171.21c-0.29,0-0.57,0-0.86-0.01c-38.01-0.47-68.55-31.79-68.08-69.8
		c0.32-25.4,14.51-48.5,37.04-60.28c0.49-0.25,1.09-0.07,1.35,0.42c0.26,0.49,0.07,1.09-0.42,1.35
		c-21.88,11.44-35.66,33.87-35.97,58.53c-0.46,36.91,29.2,67.31,66.11,67.78c0.28,0,0.56,0.01,0.84,0.01
		c24.08,0,46.35-12.95,58.26-33.95c0.27-0.48,0.88-0.65,1.36-0.38c0.48,0.27,0.65,0.88,0.38,1.36
		C743.38,157.87,720.45,171.21,695.65,171.21z"/>
</g>
<g>
	<path class="st9" d="M754.79,136.75c-0.31,0-0.62-0.15-0.81-0.41c-22.14-30.3,0.88-63.22,1.12-63.55c0.22-0.31,0.6-0.47,0.97-0.41
		c0.5,0.08,12.28,2.05,27.14,14.59c0.34,0.28,0.45,0.75,0.28,1.15s-0.57,0.65-1.02,0.6c-0.04-0.01-6.02-0.19-7.22,15.51
		c-0.09,0.57-1.78,12.2,8.27,17.23c0.29,0.14,0.48,0.41,0.54,0.73c0.05,0.31-0.05,0.63-0.27,0.86
		c-8.48,8.74-27.94,13.45-28.77,13.65C754.94,136.74,754.86,136.75,754.79,136.75z M756.37,74.48c-2.78,4.26-20.3,33.23-1.17,60.13
		c3.32-0.86,18.56-5.1,26.2-12.01c-10.01-6.02-8.16-18.45-8.14-18.58c0.59-7.86,2.47-13.19,5.56-15.78c0.55-0.46,1.08-0.78,1.56-1
		C768.55,77.7,758.85,75.04,756.37,74.48z"/>
</g>
<g>
	<path class="st9" d="M632.89,130c-0.16,0-0.33-0.04-0.48-0.12l-5.69-3.12c-1.18-0.65-2.18-1.33-3.06-2.1
		c-11.86-10.29-8.01-27.1-5.8-33.85c0.83-2.53,2.29-4.83,4.24-6.66l9.99-8.33c0.43-0.35,1.05-0.3,1.41,0.13
		c0.35,0.42,0.3,1.05-0.13,1.41l-9.95,8.29c-1.66,1.56-2.94,3.58-3.67,5.78c-2.58,7.91-5.34,22.56,5.21,31.71
		c0.77,0.67,1.66,1.28,2.71,1.85l5.69,3.12c0.48,0.27,0.66,0.87,0.4,1.36C633.59,129.81,633.24,130,632.89,130z"/>
</g>
<g>
	<path class="st9" d="M783.07,123.38c-0.33,0-0.64-0.16-0.84-0.45c-0.3-0.46-0.18-1.08,0.28-1.39c1.86-1.22,3.31-3.14,4.31-5.7
		c0.2-0.51,0.78-0.77,1.3-0.56c0.51,0.2,0.77,0.78,0.56,1.3c-1.16,2.95-2.87,5.18-5.07,6.63
		C783.45,123.32,783.25,123.38,783.07,123.38z"/>
</g>
<g>
	<path class="st9" d="M788.96,101.24c-0.49,0-0.92-0.36-0.99-0.86c-1.48-10.74-6.14-12.11-6.19-12.12c-0.54-0.13-0.87-0.66-0.75-1.2
		c0.13-0.54,0.66-0.87,1.2-0.75c0.25,0.06,6.03,1.54,7.72,13.8c0.08,0.55-0.31,1.05-0.85,1.13
		C789.05,101.24,789.01,101.24,788.96,101.24z"/>
</g>
<g>
	<g>
		<path class="st20" d="M726.31,161.63L726.31,161.63c-8.95-6.47-13.57-13.95-16.99-25.02c-1.17-3.78-5.25-5.93-9.09-4.79
			c-21.03,6.24-38.23,1.27-46.62-2.25c-1.5-0.63-3.18-0.44-4.49,0.51c-1.33,0.96-2.04,2.51-1.91,4.16
			c1,12.77,10.97,23.49,11.07,23.6l0.68,0.73l-2.26-1.1l-3.5-2.61c-0.43-0.46-6.92-7-7.98-20.47c-0.18-2.34,0.84-4.56,2.74-5.93
			c1.88-1.36,4.29-1.63,6.44-0.73c8.14,3.42,24.85,8.24,45.28,2.18c4.89-1.46,10.08,1.29,11.57,6.12
			c3.29,10.64,7.52,17.67,16.11,23.88l0.84,0.62L726.31,161.63z"/>
	</g>
</g>
<g>
	<path class="st9" d="M803.78,180.71c-0.27,0-0.53-0.11-0.73-0.32c-0.38-0.4-0.36-1.04,0.05-1.41c12.4-11.6,10.21-45.93,10.19-46.28
		c-3.32-21.58-26.01-32.31-29.71-33.92c-2.53,2.02-3.25,4.71-3.44,6.18c-0.29,2.14-0.21,4.17,3.68,7.26
		c0.57,0.16,2.17,0.65,4.25,1.68c7.22,3.57,18.98,12.9,16.67,35.23c-0.08,0.76-0.21,1.56-0.4,2.38l-0.25,1.13
		c-1.14,5.19-3.8,17.34-9.23,22.94c-0.38,0.4-1.02,0.41-1.41,0.02s-0.41-1.02-0.02-1.41c5.03-5.18,7.61-16.95,8.71-21.97l0.25-1.14
		c0.17-0.74,0.29-1.46,0.36-2.14c2.18-21.12-8.82-29.89-15.57-33.23c-2.35-1.16-4.04-1.58-4.05-1.58c-0.14-0.03-0.27-0.1-0.38-0.18
		c-4.39-3.43-5.01-6.08-4.59-9.23c0.25-1.87,1.2-5.38,4.71-7.87c0.27-0.2,0.63-0.24,0.94-0.11c0.28,0.11,27.69,11.16,31.47,35.77
		c0.11,1.53,2.28,35.71-10.81,47.96C804.27,180.62,804.02,180.71,803.78,180.71z"/>
</g>
<g>
	<path class="st9" d="M792.39,198.26h-8.51c-1.41,0-2.79-0.38-4-1.1l-3.91-2.32c-0.04-0.02-0.08-0.05-0.12-0.08
		c-7.57-6.05-1.32-18.64-1.05-19.17c1.75-3.86,11.05-2.22,13.16-1.8c11.02,0.07,21.6,10.73,22.04,11.19
		c0.39,0.39,0.38,1.03-0.01,1.41c-0.39,0.39-1.03,0.38-1.41-0.01c-0.1-0.11-10.51-10.59-20.72-10.59c-0.07,0-0.13-0.01-0.2-0.02
		c-3.96-0.81-10.22-1.16-11.05,0.68c-0.08,0.15-5.77,11.64,0.44,16.7l3.85,2.28c0.9,0.54,1.94,0.82,2.99,0.82h7.65l0.23-1.45
		c-0.86-0.53-2.49-1.63-4-3.07c-2.66-2.54-3.5-6.42-2.16-9.89l0.29-0.74c0.6-1.55,2.14-2.54,3.8-2.45
		c2.96,0.15,8.24,1.88,13.38,6.27c0.42,0.36,0.47,0.99,0.11,1.41c-0.36,0.42-0.99,0.47-1.41,0.11c-4.45-3.8-9.33-5.65-12.18-5.79
		c-0.82-0.04-1.55,0.43-1.84,1.17l-0.29,0.74c-1.05,2.71-0.39,5.74,1.68,7.72c1.95,1.87,4.18,3.12,4.2,3.13
		c0.37,0.2,0.56,0.62,0.5,1.03l-0.47,2.96C793.3,197.9,792.89,198.26,792.39,198.26z"/>
</g>
<g>
	<path class="st9" d="M790.83,197.87c-0.13,0-0.26-0.02-0.39-0.08c-5.88-2.46-9.5-5.37-10.78-8.67c-0.8-2.06-0.4-3.61-0.2-4.17
		c0.56-11.14,6.81-11.27,7.07-11.27c0.55,0,1,0.45,1,1c0,0.55-0.44,0.99-0.99,1c-0.22,0.01-4.68,0.27-5.1,9.53
		c-0.01,0.13-0.04,0.26-0.09,0.38c-0.01,0.03-0.49,1.18,0.2,2.89c0.76,1.88,3.05,4.7,9.65,7.46c0.51,0.21,0.75,0.8,0.54,1.31
		C791.6,197.64,791.22,197.87,790.83,197.87z"/>
</g>
<g>
	<path class="st9" d="M588.85,198.95h-8.51c-1.41,0-2.79-0.38-4-1.1l-3.91-2.32c-0.04-0.02-0.08-0.05-0.12-0.08
		c-7.57-6.06-1.88-17.38-1.63-17.86c1.74-3.83,11.73-3.26,13.72-3.1c0,0,0,0,0,0c10.97,0,21.32,10.19,21.75,10.63
		c0.39,0.39,0.39,1.02,0,1.41c-0.39,0.39-1.02,0.39-1.41,0c-0.1-0.1-10.21-10.05-20.42-10.05c-4.43-0.34-10.97,0.05-11.84,1.97
		c-0.07,0.14-5.18,10.34,1.03,15.39l3.85,2.28c0.9,0.54,1.94,0.82,2.98,0.82h7.65l0.23-1.45c-0.86-0.53-2.49-1.63-4-3.07
		c-2.66-2.54-3.5-6.42-2.16-9.89l0.29-0.74c0.69-1.77,3.65-2.4,4.99-2.33c3.45,0.18,6.05,1.51,10.69,5.47
		c0.42,0.36,0.47,0.99,0.11,1.41c-0.36,0.42-0.99,0.47-1.41,0.11c-4.77-4.08-6.87-4.86-9.5-4.99c-1.12-0.05-2.83,0.55-3.03,1.06
		l-0.29,0.74c-1.05,2.71-0.39,5.74,1.68,7.72c1.94,1.86,4.18,3.12,4.2,3.13c0.36,0.2,0.56,0.61,0.5,1.03l-0.47,2.96
		C589.76,198.59,589.34,198.95,588.85,198.95z"/>
</g>
<g>
	<path class="st9" d="M587.29,198.56c-0.13,0-0.26-0.03-0.39-0.08c-9.99-4.24-10.81-7.2-10.92-11.23c-0.01-0.42-0.02-0.86-0.06-1.3
		c-0.73-9.07,6.71-11.5,6.78-11.52c0.53-0.16,1.09,0.13,1.25,0.66c0.16,0.53-0.13,1.08-0.65,1.25l0,0c-0.25,0.08-5.99,2-5.39,9.45
		c0.04,0.48,0.05,0.95,0.06,1.41c0.08,3.01,0.15,5.39,9.7,9.45c0.51,0.22,0.75,0.8,0.53,1.31
		C588.05,198.33,587.68,198.56,587.29,198.56z"/>
</g>
<g>
	<path class="st9" d="M595.81,179.61c-0.51,0-0.94-0.39-0.99-0.9c-2.35-24.52,0.74-42.86,9.19-54.53
		c6.42-8.86,13.54-10.3,13.84-10.35c0.55-0.1,1.07,0.25,1.17,0.8c0.1,0.54-0.25,1.06-0.79,1.17l0,0
		c-0.27,0.05-26.86,5.95-21.42,62.73c0.05,0.55-0.35,1.04-0.9,1.09C595.88,179.6,595.84,179.61,595.81,179.61z"/>
</g>
<g>
	<path class="st9" d="M585.24,176.51c-0.52,0-0.96-0.4-1-0.93c-2.4-34.01,6.32-53.21,14.06-63.32
		c8.47-11.06,17.44-13.95,17.82-14.06c0.53-0.16,1.09,0.13,1.25,0.66c0.16,0.53-0.13,1.09-0.66,1.25
		c-0.09,0.03-8.84,2.87-16.92,13.49c-7.49,9.84-15.92,28.56-13.56,61.84c0.04,0.55-0.38,1.03-0.93,1.07
		C585.29,176.51,585.26,176.51,585.24,176.51z"/>
</g>
<g>
	<path class="st9" d="M811.18,252.74H559.92c-7.88,0-14.29-6.41-14.29-14.29v-38.69c0-7.88,6.41-14.29,14.29-14.29h9.51
		c0.55,0,1,0.45,1,1s-0.45,1-1,1h-9.51c-6.78,0-12.29,5.51-12.29,12.29v38.69c0,6.78,5.51,12.29,12.29,12.29h251.26
		c6.78,0,12.29-5.51,12.29-12.29v-38.69c0-6.78-5.51-12.29-12.29-12.29h-24.45c-0.55,0-1-0.45-1-1s0.45-1,1-1h24.45
		c7.88,0,14.29,6.41,14.29,14.29v38.69C825.47,246.33,819.06,252.74,811.18,252.74z"/>
</g>
<g>
	<path class="st9" d="M773.15,187.47H582.46c-0.55,0-1-0.45-1-1s0.45-1,1-1h190.69c0.55,0,1,0.45,1,1S773.71,187.47,773.15,187.47z"
		/>
</g>
<g>
	<path class="st9" d="M787.42,115.33c-0.44,0-0.85-0.3-0.97-0.75c-2.37-9.1,3.11-13.28,3.35-13.46c0.44-0.33,1.07-0.23,1.4,0.21
		c0.33,0.44,0.24,1.07-0.21,1.4c-0.2,0.15-4.62,3.61-2.61,11.35c0.14,0.53-0.18,1.08-0.72,1.22
		C787.59,115.32,787.5,115.33,787.42,115.33z"/>
</g>
<g>
	<path class="st9" d="M794.79,120.51c-0.52,0-0.96-0.4-1-0.92c-0.28-3.56,0.46-6.35,2.21-8.3c2.24-2.49,5.28-2.61,5.41-2.61
		c0.51-0.01,1.01,0.42,1.03,0.97c0.02,0.55-0.42,1.01-0.97,1.03c-0.04,0-2.36,0.12-4.01,1.97c-1.35,1.52-1.92,3.8-1.69,6.78
		c0.04,0.55-0.37,1.03-0.92,1.08C794.84,120.51,794.81,120.51,794.79,120.51z"/>
</g>
<g>
	<path class="st9" d="M799.07,126.01c-0.05,0-0.1,0-0.15-0.01c-0.55-0.08-0.92-0.59-0.84-1.14c0.03-0.2,0.77-4.85,4.18-7.11
		c1.82-1.21,4.01-1.49,6.51-0.86c0.54,0.14,0.86,0.68,0.72,1.21c-0.13,0.54-0.68,0.86-1.21,0.73c-1.93-0.49-3.59-0.29-4.92,0.59
		c-2.67,1.77-3.3,5.71-3.31,5.75C799.98,125.65,799.55,126.01,799.07,126.01z"/>
</g>
<g>
	<path class="st9" d="M802.26,132.82c-0.16,0-0.33-0.04-0.48-0.13c-0.48-0.27-0.66-0.87-0.39-1.36c1.51-2.73,5.95-7.12,12.03-4.2
		c0.5,0.24,0.71,0.84,0.47,1.33c-0.24,0.5-0.84,0.71-1.33,0.47c-5.88-2.82-9.27,3.11-9.41,3.36
		C802.96,132.64,802.62,132.82,802.26,132.82z"/>
</g>
<g>
	<path class="st9" d="M803.82,140.5c-0.22,0-0.45-0.07-0.63-0.23c-0.42-0.35-0.49-0.98-0.14-1.4c0.05-0.06,5.02-6,11.86-0.63
		c0.43,0.34,0.51,0.97,0.17,1.4c-0.34,0.43-0.97,0.51-1.4,0.17c-5.18-4.07-8.69-0.13-9.07,0.33
		C804.4,140.38,804.11,140.5,803.82,140.5z"/>
</g>
<g>
	<path class="st9" d="M813.99,149.73c-0.28,0-0.55-0.11-0.75-0.34c-3.85-4.34-8.6-0.42-8.8-0.25c-0.42,0.36-1.05,0.3-1.41-0.12
		c-0.36-0.42-0.3-1.05,0.12-1.41c2.21-1.87,7.49-4.17,11.59,0.46c0.37,0.41,0.33,1.05-0.08,1.41
		C814.46,149.64,814.22,149.73,813.99,149.73z"/>
</g>
<g>
	<path class="st9" d="M812.56,161.63c-0.3,0-0.59-0.13-0.79-0.39c-4.16-5.36-9.06-2.69-9.27-2.57c-0.48,0.27-1.09,0.1-1.36-0.38
		c-0.27-0.48-0.1-1.09,0.38-1.36c0.07-0.04,6.62-3.62,11.83,3.09c0.34,0.44,0.26,1.06-0.18,1.4
		C812.99,161.56,812.77,161.63,812.56,161.63z"/>
</g>
<g>
	<path class="st9" d="M809.6,171.73c-0.32,0-0.63-0.15-0.83-0.44c-3.43-5.03-9.02-3.91-9.08-3.9c-0.55,0.12-1.07-0.23-1.19-0.77
		c-0.11-0.54,0.23-1.07,0.77-1.19c0.28-0.06,6.97-1.4,11.14,4.73c0.31,0.46,0.19,1.08-0.26,1.39
		C809.99,171.67,809.8,171.73,809.6,171.73z"/>
</g>
<g>
	<path class="st9" d="M613.22,117.46c-0.2,0-0.4-0.06-0.57-0.18c-6.98-4.87-4.83-11.23-4.12-13.32c0.07-0.2,0.13-0.36,0.16-0.48
		c-0.02-0.36,0.15-0.71,0.47-0.92c0.47-0.29,1.09-0.15,1.38,0.32c0.3,0.49,0.15,0.95-0.11,1.71c-0.71,2.1-2.38,7.02,3.37,11.03
		c0.45,0.32,0.56,0.94,0.25,1.39C613.85,117.31,613.54,117.46,613.22,117.46z M608.84,103.94
		C608.84,103.95,608.84,103.95,608.84,103.94C608.84,103.95,608.84,103.95,608.84,103.94z M608.83,103.94L608.83,103.94
		L608.83,103.94z"/>
</g>
<g>
	<path class="st9" d="M607.97,121.8c-0.09,0-0.19-0.01-0.29-0.04c-4.1-1.23-6.76-3.15-7.91-5.7c-1.28-2.82-0.16-5.33-0.11-5.43
		c0.23-0.5,0.82-0.72,1.33-0.49c0.5,0.23,0.72,0.82,0.5,1.32c-0.04,0.09-0.78,1.84,0.13,3.81c0.91,1.98,3.15,3.52,6.65,4.57
		c0.53,0.16,0.83,0.72,0.67,1.25C608.79,121.52,608.4,121.8,607.97,121.8z"/>
</g>
<g>
	<path class="st9" d="M601.94,128.89c-6.64,0-8.25-4.53-8.87-6.28c-0.06-0.16-0.1-0.3-0.14-0.4c-0.26-0.28-0.35-0.71-0.18-1.09
		c0.22-0.5,0.81-0.73,1.32-0.51c0.5,0.22,0.67,0.69,0.89,1.33c0.61,1.71,1.9,5.27,7.79,4.92c0.57-0.04,1.03,0.39,1.06,0.94
		c0.03,0.55-0.39,1.02-0.94,1.06C602.55,128.88,602.24,128.89,601.94,128.89z M593.25,122.44L593.25,122.44L593.25,122.44z"/>
</g>
<g>
	<path class="st9" d="M596.51,137.98c-3.33,0-5.66-0.7-6.95-2.09c-1.18-1.27-1.02-2.61-1-2.76c0.08-0.55,0.59-0.93,1.13-0.85
		c0.54,0.08,0.92,0.57,0.85,1.11c0,0.05-0.03,0.62,0.53,1.19c0.63,0.64,2.4,1.66,7.16,1.35c0.58-0.04,1.03,0.38,1.07,0.93
		c0.04,0.55-0.38,1.03-0.93,1.06C597.71,137.95,597.09,137.98,596.51,137.98z"/>
</g>
<g>
	<path class="st9" d="M592.19,148.01c-2.7,0-4.63-0.53-5.76-1.59c-1.07-0.99-1.03-2.09-1.02-2.21c0.04-0.55,0.51-0.97,1.07-0.93
		c0.54,0.04,0.95,0.49,0.93,1.02c0,0.05,0.04,0.37,0.46,0.72c0.7,0.59,2.69,1.45,8.16,0.68c0.54-0.08,1.05,0.3,1.13,0.85
		c0.08,0.55-0.3,1.05-0.85,1.13C594.78,147.91,593.41,148.01,592.19,148.01z"/>
</g>
<g>
	<path class="st9" d="M589.94,158.47c-3.67,0-5.48-1.9-5.58-2.01c-0.37-0.41-0.35-1.04,0.06-1.41c0.4-0.37,1.03-0.35,1.41,0.05
		c0.13,0.13,2.74,2.72,8.5,0.44c0.51-0.2,1.09,0.05,1.3,0.56c0.2,0.51-0.05,1.09-0.56,1.3
		C593.06,158.18,591.36,158.47,589.94,158.47z"/>
</g>
<g>
	<path class="st9" d="M590.42,168.73c-4.02,0-5.95-2.03-6.06-2.14c-0.38-0.41-0.35-1.04,0.05-1.41c0.4-0.37,1.03-0.35,1.41,0.05
		c0.13,0.13,2.84,2.82,8.95,0.7c0.53-0.18,1.09,0.1,1.27,0.62c0.18,0.52-0.09,1.09-0.62,1.27
		C593.5,168.48,591.83,168.73,590.42,168.73z"/>
</g>
<g>
	<g>
		<path class="st8" d="M28.64,144.79l5.67,2.09c4.59,1.69,8.21,5.31,9.9,9.9l2.09,5.67c0.08,0.21,0.28,0.36,0.51,0.36
			c0.23,0,0.43-0.14,0.51-0.36l2.09-5.67c1.69-4.59,5.31-8.21,9.9-9.9l5.67-2.09c0.21-0.08,0.35-0.28,0.35-0.51
			s-0.14-0.43-0.35-0.51l-5.67-2.09c-4.59-1.69-8.21-5.31-9.9-9.9l-2.09-5.67c-0.08-0.21-0.28-0.35-0.51-0.35
			c-0.23,0-0.43,0.14-0.51,0.35l-2.09,5.67c-1.69,4.59-5.31,8.21-9.9,9.9l-5.67,2.09c-0.21,0.08-0.35,0.28-0.35,0.51
			S28.42,144.71,28.64,144.79z"/>
	</g>
</g>
<g>
	<g>
		<path class="st6" d="M835.24,81.24l3.23,1.19c2.62,0.96,4.68,3.03,5.64,5.64l1.19,3.23c0.04,0.12,0.16,0.2,0.29,0.2
			c0.13,0,0.25-0.08,0.29-0.2l1.19-3.23c0.96-2.62,3.03-4.68,5.64-5.64l3.23-1.19c0.12-0.04,0.2-0.16,0.2-0.29s-0.08-0.25-0.2-0.29
			l-3.23-1.19c-2.62-0.97-4.68-3.03-5.64-5.64l-1.19-3.23c-0.04-0.12-0.16-0.2-0.29-0.2c-0.13,0-0.25,0.08-0.29,0.2l-1.19,3.23
			c-0.96,2.62-3.03,4.68-5.64,5.64l-3.23,1.19c-0.12,0.04-0.2,0.16-0.2,0.29S835.11,81.19,835.24,81.24z"/>
	</g>
</g>
<g>
	<g>
		<path class="st7" d="M75.56,187.62l2.87,1.06c2.33,0.86,4.16,2.69,5.02,5.02l1.06,2.87c0.04,0.11,0.14,0.18,0.26,0.18
			c0.11,0,0.22-0.07,0.26-0.18l1.06-2.87c0.86-2.33,2.69-4.16,5.02-5.02l2.87-1.06c0.11-0.04,0.18-0.14,0.18-0.26
			s-0.07-0.22-0.18-0.26l-2.87-1.06c-2.33-0.86-4.16-2.69-5.02-5.02l-1.06-2.87c-0.04-0.11-0.14-0.18-0.26-0.18
			c-0.12,0-0.22,0.07-0.26,0.18l-1.06,2.87c-0.86,2.33-2.69,4.16-5.02,5.02l-2.87,1.06c-0.11,0.04-0.18,0.14-0.18,0.26
			S75.45,187.58,75.56,187.62z"/>
	</g>
</g>
<g>
	<g>
		<path class="st8" d="M928.4,108.74l-6.82,2.51c-5.52,2.03-9.87,6.38-11.9,11.9l-2.51,6.82c-0.09,0.26-0.34,0.43-0.61,0.43
			c-0.27,0-0.52-0.17-0.61-0.43l-2.51-6.82c-2.04-5.52-6.39-9.87-11.9-11.9l-6.82-2.51c-0.26-0.09-0.43-0.34-0.43-0.61
			c0-0.27,0.17-0.52,0.43-0.61l6.82-2.51c5.52-2.04,9.87-6.39,11.9-11.9l2.51-6.82c0.09-0.26,0.34-0.43,0.61-0.43
			c0.27,0,0.52,0.17,0.61,0.43l2.51,6.82c2.04,5.52,6.39,9.87,11.9,11.9l6.82,2.51c0.26,0.09,0.43,0.34,0.43,0.61
			C928.82,108.4,928.65,108.64,928.4,108.74z"/>
	</g>
</g>
<g>
	<g>
		<path class="st7" d="M884.84,174.26l-2.87,1.06c-2.33,0.86-4.16,2.69-5.02,5.02l-1.06,2.87c-0.04,0.11-0.14,0.18-0.26,0.18
			c-0.11,0-0.22-0.07-0.26-0.18l-1.06-2.87c-0.86-2.33-2.69-4.16-5.02-5.02l-2.87-1.06c-0.11-0.04-0.18-0.14-0.18-0.26
			c0-0.12,0.07-0.22,0.18-0.26l2.87-1.06c2.33-0.86,4.16-2.69,5.02-5.02l1.06-2.87c0.04-0.11,0.14-0.18,0.26-0.18
			c0.12,0,0.22,0.07,0.26,0.18l1.06,2.87c0.86,2.33,2.69,4.16,5.02,5.02l2.87,1.06c0.11,0.04,0.18,0.14,0.18,0.26
			C885.02,174.12,884.95,174.22,884.84,174.26z"/>
	</g>
</g>
</svg>
